<svg id="b684dbd9-3842-46bb-8bef-7276a73da40e" data-name="Layer 1" xmlns="http://www.w3.org/2000/svg" xmlns:xlink="http://www.w3.org/1999/xlink" viewBox="0 0 241 241"><defs><style>.a242ea7d-ba3f-4887-8416-0a3848ff6251,.ad7b0bc9-1b23-4b43-9932-69cd9ef85786,.ae78a4b2-847e-41e0-b644-7958184f486f,.b10dd7a3-908c-41bc-8513-d3eea1c9cd95,.b201f048-dd3b-4683-98bc-875aa67d9ca9,.b830ab8f-1054-4927-879d-4d1651fc69f4,.e048d0dd-683c-47c1-91e3-0cb87f530060,.e1e70ef0-2755-488b-968c-73a6aff6ebf2,.e5f9e5e5-9e8f-4140-8216-38d699f07e8f,.f3cc2abd-9ae8-455d-a727-5579929c6e53,.f682944b-c214-46fe-a4da-8b107e111fea,.fbb03755-2f26-495e-a2fd-cd970aa017cd,.ff0a394f-3528-46ef-b21e-cf3e5d37b5c5,.ff9fad99-eaa4-4b9b-9411-5512f0f9f785{fill:none;stroke-miterlimit:10;stroke-width:0.25px;}.ad7b0bc9-1b23-4b43-9932-69cd9ef85786{stroke:url(#b5a9ab52-e47a-4342-94a7-62761bc24d3b);}.a242ea7d-ba3f-4887-8416-0a3848ff6251{stroke:url(#f6e70096-2aad-4ad6-9427-6ce5e865b9d8);}.fbb03755-2f26-495e-a2fd-cd970aa017cd{stroke:url(#fb699571-8117-4bfc-9a68-164429e5a3fb);}.b201f048-dd3b-4683-98bc-875aa67d9ca9{stroke:url(#a79fb0b3-83ad-4b43-ab55-00bc22eb822f);}.e048d0dd-683c-47c1-91e3-0cb87f530060{stroke:url(#f69296b5-1cd8-461c-8276-ec8c55174590);}.ff9fad99-eaa4-4b9b-9411-5512f0f9f785{stroke:url(#e30a3cfc-67e7-47a4-8048-332430474ff7);}.ff0a394f-3528-46ef-b21e-cf3e5d37b5c5{stroke:url(#acfed48b-1070-4238-aa63-f90387db3405);}.b10dd7a3-908c-41bc-8513-d3eea1c9cd95{stroke:url(#ecde8b8b-f177-482a-9259-c1da8c687c32);}.e5f9e5e5-9e8f-4140-8216-38d699f07e8f{stroke:url(#e51ccd1f-318e-4351-9b23-99a52ca9c553);}.f3cc2abd-9ae8-455d-a727-5579929c6e53{stroke:url(#ef8570f0-12dd-476e-910c-53d7c1e3e155);}.b830ab8f-1054-4927-879d-4d1651fc69f4{stroke:url(#ebc3275b-aa55-47e1-ba34-4e3652c1a922);}.e1e70ef0-2755-488b-968c-73a6aff6ebf2{stroke:url(#a441c70f-836b-4e43-b4f8-97bd0a93789d);}.ae78a4b2-847e-41e0-b644-7958184f486f{stroke:url(#a97f0cd3-bc0c-4780-8ed6-1bc951f6fd18);}.f682944b-c214-46fe-a4da-8b107e111fea{stroke:url(#ba0e7baa-f391-4aa3-84e8-99606a0e5d52);}</style><radialGradient id="b5a9ab52-e47a-4342-94a7-62761bc24d3b" cx="59.26" cy="120.95" r="73.72" gradientUnits="userSpaceOnUse"><stop offset="0" stop-color="#fff"/><stop offset="0.38" stop-color="#fff" stop-opacity="0.99"/><stop offset="0.52" stop-color="#fff" stop-opacity="0.97"/><stop offset="0.62" stop-color="#fff" stop-opacity="0.92"/><stop offset="0.69" stop-color="#fff" stop-opacity="0.85"/><stop offset="0.76" stop-color="#fff" stop-opacity="0.77"/><stop offset="0.82" stop-color="#fff" stop-opacity="0.66"/><stop offset="0.88" stop-color="#fff" stop-opacity="0.53"/><stop offset="0.93" stop-color="#fff" stop-opacity="0.38"/><stop offset="0.97" stop-color="#fff" stop-opacity="0.22"/><stop offset="1" stop-color="#fff" stop-opacity="0.1"/></radialGradient><radialGradient id="f6e70096-2aad-4ad6-9427-6ce5e865b9d8" cx="80" cy="120.5" r="80.28" xlink:href="#b5a9ab52-e47a-4342-94a7-62761bc24d3b"/><radialGradient id="fb699571-8117-4bfc-9a68-164429e5a3fb" cx="100.74" cy="120.5" r="84.07" xlink:href="#b5a9ab52-e47a-4342-94a7-62761bc24d3b"/><radialGradient id="a79fb0b3-83ad-4b43-ab55-00bc22eb822f" cx="121.49" cy="120.5" r="85.21" xlink:href="#b5a9ab52-e47a-4342-94a7-62761bc24d3b"/><radialGradient id="f69296b5-1cd8-461c-8276-ec8c55174590" cx="142.23" cy="120.5" r="83.83" xlink:href="#b5a9ab52-e47a-4342-94a7-62761bc24d3b"/><radialGradient id="e30a3cfc-67e7-47a4-8048-332430474ff7" cx="162.97" cy="120.5" r="79.77" xlink:href="#b5a9ab52-e47a-4342-94a7-62761bc24d3b"/><radialGradient id="acfed48b-1070-4238-aa63-f90387db3405" cx="183.72" cy="121.48" r="73.35" xlink:href="#b5a9ab52-e47a-4342-94a7-62761bc24d3b"/><radialGradient id="ecde8b8b-f177-482a-9259-c1da8c687c32" cx="121.48" cy="183.72" r="73.35" gradientUnits="userSpaceOnUse"><stop offset="0" stop-color="#fff"/><stop offset="0.37" stop-color="#fff" stop-opacity="0.99"/><stop offset="0.51" stop-color="#fff" stop-opacity="0.97"/><stop offset="0.6" stop-color="#fff" stop-opacity="0.92"/><stop offset="0.68" stop-color="#fff" stop-opacity="0.85"/><stop offset="0.75" stop-color="#fff" stop-opacity="0.77"/><stop offset="0.8" stop-color="#fff" stop-opacity="0.66"/><stop offset="0.86" stop-color="#fff" stop-opacity="0.53"/><stop offset="0.91" stop-color="#fff" stop-opacity="0.39"/><stop offset="0.95" stop-color="#fff" stop-opacity="0.22"/><stop offset="0.99" stop-color="#fff" stop-opacity="0.04"/><stop offset="1" stop-color="#fff" stop-opacity="0"/></radialGradient><radialGradient id="e51ccd1f-318e-4351-9b23-99a52ca9c553" cx="120.5" cy="162.97" r="79.77" xlink:href="#ecde8b8b-f177-482a-9259-c1da8c687c32"/><radialGradient id="ef8570f0-12dd-476e-910c-53d7c1e3e155" cx="120.5" cy="142.23" r="83.83" xlink:href="#ecde8b8b-f177-482a-9259-c1da8c687c32"/><radialGradient id="ebc3275b-aa55-47e1-ba34-4e3652c1a922" cx="120.5" cy="121.49" r="85.21" xlink:href="#ecde8b8b-f177-482a-9259-c1da8c687c32"/><radialGradient id="a441c70f-836b-4e43-b4f8-97bd0a93789d" cx="120.5" cy="100.74" r="84.07" xlink:href="#ecde8b8b-f177-482a-9259-c1da8c687c32"/><radialGradient id="a97f0cd3-bc0c-4780-8ed6-1bc951f6fd18" cx="120.5" cy="80" r="80.28" xlink:href="#ecde8b8b-f177-482a-9259-c1da8c687c32"/><radialGradient id="ba0e7baa-f391-4aa3-84e8-99606a0e5d52" cx="120.95" cy="59.26" r="73.72" xlink:href="#ecde8b8b-f177-482a-9259-c1da8c687c32"/></defs><polyline class="ad7b0bc9-1b23-4b43-9932-69cd9ef85786" points="59.26 225.21 59.26 224.31 59.26 204.46 59.26 183.72 59.26 162.97 59.26 142.23 59.26 121.49 59.26 100.74 59.26 80 59.26 59.26 59.26 38.51 59.26 17.77 59.26 16.69"/><polyline class="a242ea7d-ba3f-4887-8416-0a3848ff6251" points="80 6.96 80 17.77 80 38.51 80 59.26 80 80 80 100.74 80 121.49 80 142.23 80 162.97 80 183.72 80 204.46 80 225.21 80 234.04"/><polyline class="fbb03755-2f26-495e-a2fd-cd970aa017cd" points="100.74 1.61 100.74 17.77 100.74 38.51 100.74 59.26 100.74 80 100.74 100.74 100.74 121.49 100.74 142.23 100.74 162.97 100.74 183.72 100.74 204.46 100.74 225.21 100.74 239.39"/><polyline class="b201f048-dd3b-4683-98bc-875aa67d9ca9" points="121.49 0 121.49 17.77 121.49 38.51 121.49 59.26 121.49 80 121.49 100.74 121.49 121.49 121.49 142.23 121.49 162.97 121.49 183.72 121.49 204.46 121.49 225.21 121.49 241"/><polyline class="e048d0dd-683c-47c1-91e3-0cb87f530060" points="142.23 1.95 142.23 17.77 142.23 38.51 142.23 59.26 142.23 80 142.23 100.74 142.23 121.49 142.23 142.23 142.23 162.97 142.23 183.72 142.23 204.46 142.23 225.21 142.23 239.05"/><polyline class="ff9fad99-eaa4-4b9b-9411-5512f0f9f785" points="162.97 7.7 162.97 17.77 162.97 38.51 162.97 59.26 162.97 80 162.97 100.74 162.97 121.49 162.97 142.23 162.97 162.97 162.97 183.72 162.97 204.46 162.97 225.21 162.97 233.31"/><polyline class="ff0a394f-3528-46ef-b21e-cf3e5d37b5c5" points="183.72 225.21 183.72 223.12 183.72 204.46 183.72 183.72 183.72 162.97 183.72 142.23 183.72 121.49 183.72 100.74 183.72 80 183.72 59.26 183.72 38.51 183.72 17.88 183.72 17.77"/><polyline class="b10dd7a3-908c-41bc-8513-d3eea1c9cd95" points="225.21 183.72 223.12 183.72 204.46 183.72 183.72 183.72 162.97 183.72 142.23 183.72 121.49 183.72 100.74 183.72 80 183.72 59.26 183.72 38.51 183.72 17.88 183.72 17.77 183.72"/><polyline class="e5f9e5e5-9e8f-4140-8216-38d699f07e8f" points="7.7 162.97 17.77 162.97 38.51 162.97 59.26 162.97 80 162.97 100.74 162.97 121.49 162.97 142.23 162.97 162.97 162.97 183.72 162.97 204.46 162.97 225.21 162.97 233.31 162.97"/><polyline class="f3cc2abd-9ae8-455d-a727-5579929c6e53" points="1.95 142.23 17.77 142.23 38.51 142.23 59.26 142.23 80 142.23 100.74 142.23 121.49 142.23 142.23 142.23 162.97 142.23 183.72 142.23 204.46 142.23 225.21 142.23 239.05 142.23"/><polyline class="b830ab8f-1054-4927-879d-4d1651fc69f4" points="0 121.49 17.77 121.49 38.51 121.49 59.26 121.49 80 121.49 100.74 121.49 121.49 121.49 142.23 121.49 162.97 121.49 183.72 121.49 204.46 121.49 225.21 121.49 241 121.49"/><polyline class="e1e70ef0-2755-488b-968c-73a6aff6ebf2" points="1.61 100.74 17.77 100.74 38.51 100.74 59.26 100.74 80 100.74 100.74 100.74 121.49 100.74 142.23 100.74 162.97 100.74 183.72 100.74 204.46 100.74 225.21 100.74 239.39 100.74"/><polyline class="ae78a4b2-847e-41e0-b644-7958184f486f" points="6.96 80 17.77 80 38.51 80 59.26 80 80 80 100.74 80 121.49 80 142.23 80 162.97 80 183.72 80 204.46 80 225.21 80 234.04 80"/><polyline class="f682944b-c214-46fe-a4da-8b107e111fea" points="225.21 59.26 224.31 59.26 204.46 59.26 183.72 59.26 162.97 59.26 142.23 59.26 121.49 59.26 100.74 59.26 80 59.26 59.26 59.26 38.51 59.26 17.77 59.26 16.69 59.26"/></svg>