<svg xmlns="http://www.w3.org/2000/svg" xmlns:xlink="http://www.w3.org/1999/xlink" viewBox="0 0 1163.44 1533.8"><defs><style>.cls-1,.cls-9{fill:none;}.cls-2{fill:#5c31bd;}.cls-3{clip-path:url(#clip-path);}.cls-4,.cls-7{fill:#1a1f1c;}.cls-4,.cls-8,.cls-9{stroke:#1a1f1c;stroke-miterlimit:10;stroke-width:0.45px;}.cls-5,.cls-8{opacity:0.69;}.cls-6{fill:#2a2d2b;}.cls-14,.cls-8{fill:#1f2321;}.cls-10{fill:#fff;}.cls-11{fill:#231f20;}.cls-12{fill:#ded59d;}.cls-13{opacity:0.54;font-size:33.88px;font-family:DancingScript, Dancing Script;}.cls-15{fill:#85a98e;}.cls-16{fill:#fc8c82;}.cls-17{fill:#523957;}.cls-18{fill:#645d2e;}.cls-19{fill:#a97c71;}.cls-20{fill:#1a3822;}.cls-21{fill:#7d5aca;}</style><clipPath id="clip-path" transform="translate(239.04 295.44)"><path class="cls-1" d="M625.47,50.78v868H49.33V125a125,125,0,0,1,125-125H574.68A50.78,50.78,0,0,1,625.47,50.78Z"/></clipPath></defs><g id="Layer_2" data-name="Layer 2"><g id="Layer_4" data-name="Layer 4"><path class="cls-2" d="M625.47,44.81v874H49.33V125a125,125,0,0,1,125-125H580.66A44.81,44.81,0,0,1,625.47,44.81Z" transform="translate(239.04 295.44)"/><g class="cls-3"><path class="cls-4" d="M157.15,298.22H421a8.8,8.8,0,0,1,8.8,8.8V474.43a19.18,19.18,0,0,1-19.18,19.18H157.15A19.18,19.18,0,0,1,138,474.43v-157a19.18,19.18,0,0,1,19.18-19.18Z" transform="translate(602.14 210.67) rotate(45)"/><g class="cls-5"><path class="cls-6" d="M315.32,545.44a8.81,8.81,0,0,1-6.27-2.59L124.24,358a8.89,8.89,0,0,1,0-12.54L244.07,225.67a8.88,8.88,0,0,1,12.54,0L441.42,410.48a8.89,8.89,0,0,1,0,12.54L321.59,542.85A8.81,8.81,0,0,1,315.32,545.44Z" transform="translate(239.04 295.44)"/><path class="cls-7" d="M250.34,226.49a5.44,5.44,0,0,1,3.86,1.59L439,412.89a5.48,5.48,0,0,1,0,7.72L319.18,540.43a5.46,5.46,0,0,1-7.72,0l-184.8-184.8a5.46,5.46,0,0,1,0-7.72L246.48,228.08a5.46,5.46,0,0,1,3.86-1.59m0-6.82a12.23,12.23,0,0,0-8.68,3.59L121.83,343.09a12.29,12.29,0,0,0,0,17.36L306.64,545.26a12.29,12.29,0,0,0,17.36,0L443.83,425.43a12.29,12.29,0,0,0,0-17.36L259,223.26a12.19,12.19,0,0,0-8.68-3.59Z" transform="translate(239.04 295.44)"/></g><circle class="cls-4" cx="484.52" cy="632.19" r="68.99"/><circle class="cls-4" cx="565.97" cy="714.73" r="31.16"/><path class="cls-8" d="M310.64,479.64,190.32,359.32c-7.47-7.47-36.57,16.89-36.57,16.89a4.63,4.63,0,0,0,0,6.52L286.63,515.61a4.63,4.63,0,0,0,6.52,0S318.93,487.93,310.64,479.64Z" transform="translate(239.04 295.44)"/><circle class="cls-4" cx="412.83" cy="680.18" r="5.6"/><circle class="cls-4" cx="527.46" cy="794.82" r="5.6"/><circle class="cls-4" cx="522.48" cy="774.01" r="5.6"/><circle class="cls-4" cx="437.18" cy="688.71" r="5.6"/><circle class="cls-4" cx="668.62" cy="711.85" r="4.49"/><circle class="cls-4" cx="377.4" cy="646.32" r="4.49"/><circle class="cls-4" cx="490.25" cy="533.47" r="4.49"/><circle class="cls-4" cx="555.78" cy="824.69" r="4.49"/><circle class="cls-9" cx="483.98" cy="632.74" r="16.76"/><circle class="cls-10" cx="483.92" cy="632.79" r="18.95"/><circle class="cls-9" cx="565.97" cy="714.73" r="16.76"/><circle class="cls-10" cx="565.97" cy="714.73" r="18.87"/><path class="cls-11" d="M338.78,431.13a16.71,16.71,0,0,1-4.2,3.07l-.79-3.1a.79.79,0,0,0-.94-.56l-5.33,1.38a.76.76,0,0,0-.55.93l.81,3.17a16.69,16.69,0,0,1-9.95-2.66l2.28-2.28a.77.77,0,0,0,0-1.09l-3.89-3.89a.77.77,0,0,0-1.09,0l-2.28,2.28A16.75,16.75,0,0,1,310.22,418l3.14.91a.76.76,0,0,0,.95-.53l1.53-5.29a.77.77,0,0,0-.53-1l-3.07-.88a16.5,16.5,0,0,1,2.84-3.78,16.84,16.84,0,0,1,4.5-3.22l.84,3.23a.77.77,0,0,0,.94.55l5.33-1.37a.76.76,0,0,0,.54-.93l-.81-3.16a16.7,16.7,0,0,1,9.61,2.68l-2.28,2.28a.76.76,0,0,0,0,1.08l3.89,3.9a.76.76,0,0,0,1.08,0l2.29-2.29a16.79,16.79,0,0,1,2.65,10.08l-3.08-.89a.78.78,0,0,0-.95.53l-1.52,5.29a.77.77,0,0,0,.52.95l3.16.91A16.81,16.81,0,0,1,338.78,431.13Z" transform="translate(239.04 295.44)"/><path class="cls-11" d="M256.79,349.14a16.71,16.71,0,0,1-4.2,3.07l-.79-3.1a.79.79,0,0,0-.94-.56l-5.33,1.38a.77.77,0,0,0-.56.93l.82,3.17a16.69,16.69,0,0,1-9.95-2.66l2.28-2.28a.77.77,0,0,0,0-1.09l-3.89-3.89a.77.77,0,0,0-1.09,0l-2.28,2.28A16.69,16.69,0,0,1,228.23,336l3.14.91a.77.77,0,0,0,.95-.53l1.53-5.29a.77.77,0,0,0-.53-.95l-3.07-.88a16.5,16.5,0,0,1,2.84-3.78,16.84,16.84,0,0,1,4.5-3.22l.84,3.23a.76.76,0,0,0,.94.55l5.33-1.37a.76.76,0,0,0,.54-.93l-.81-3.16a16.77,16.77,0,0,1,9.61,2.67l-2.28,2.29a.76.76,0,0,0,0,1.08l3.89,3.9a.77.77,0,0,0,1.08,0l2.29-2.29a16.79,16.79,0,0,1,2.65,10.08l-3.08-.89a.78.78,0,0,0-.95.53l-1.52,5.29a.76.76,0,0,0,.52.95l3.16.91A16.81,16.81,0,0,1,256.79,349.14Z" transform="translate(239.04 295.44)"/><path class="cls-12" d="M418.47,413.61l-165-165a4.63,4.63,0,0,0-6.52,0l-73.47,73.47a4.63,4.63,0,0,0,0,6.52l165,165a4.63,4.63,0,0,0,6.52,0l73.47-73.47A4.63,4.63,0,0,0,418.47,413.61Zm-83,38.69a4.61,4.61,0,0,1-6.52,0L214.78,338.11a4.63,4.63,0,0,1,0-6.52l24.46-24.45a4.63,4.63,0,0,1,6.52,0L360,421.33a4.63,4.63,0,0,1,0,6.52Z" transform="translate(239.04 295.44)"/><text class="cls-13" transform="translate(512.06 612.14) rotate(45)">best ballads</text><line class="cls-9" x1="513.63" y1="590.17" x2="635.68" y2="712.22"/><line class="cls-9" x1="628.26" y1="720.91" x2="506.37" y2="599.03"/><path class="cls-8" d="M385.37,415.78c-1.78-6.18-1.66-10.83.21-11.73.3-.14,1.79-.74,5.21,2.29,3.26.64,5,1.5,5.14,2.6Q396.32,411.52,385.37,415.78Z" transform="translate(239.04 295.44)"/><path class="cls-8" d="M384.4,422.39c1.51-3.17,3.24-5,4.33-4.72.17.05,1,.34,1.3,2.82,1.11,1.44,1.5,2.41,1.17,2.92C390.68,424.2,388.42,423.87,384.4,422.39Z" transform="translate(239.04 295.44)"/><path class="cls-4" d="M-200.13,264.82H63.7a8.8,8.8,0,0,1,8.8,8.8V441a19.18,19.18,0,0,1-19.18,19.18H-200.13A19.18,19.18,0,0,1-219.31,441V284a19.18,19.18,0,0,1,19.18-19.18Z" transform="translate(473.88 453.53) rotate(45)"/><g class="cls-5"><path class="cls-6" d="M-42,512a8.81,8.81,0,0,1-6.27-2.59L-233,324.64a8.81,8.81,0,0,1-2.59-6.27A8.81,8.81,0,0,1-233,312.1l119.83-119.83a8.81,8.81,0,0,1,6.27-2.59,8.81,8.81,0,0,1,6.27,2.59l184.8,184.8a8.87,8.87,0,0,1,0,12.54L-35.7,509.44A8.79,8.79,0,0,1-42,512Z" transform="translate(239.04 295.44)"/><path class="cls-7" d="M-106.94,193.09a5.44,5.44,0,0,1,3.86,1.59L81.72,379.49a5.47,5.47,0,0,1,0,7.71L-38.11,507A5.44,5.44,0,0,1-42,508.62,5.42,5.42,0,0,1-45.82,507l-184.81-184.8a5.48,5.48,0,0,1,0-7.72L-110.8,194.68a5.44,5.44,0,0,1,3.86-1.59m0-6.82a12.15,12.15,0,0,0-8.68,3.59L-235.45,309.69a12.17,12.17,0,0,0-3.59,8.68,12.17,12.17,0,0,0,3.59,8.68l184.8,184.8A12.18,12.18,0,0,0-42,515.44a12.15,12.15,0,0,0,8.68-3.59L86.54,392a12.29,12.29,0,0,0,0-17.37l-184.8-184.8a12.17,12.17,0,0,0-8.68-3.59Z" transform="translate(239.04 295.44)"/></g><circle class="cls-4" cx="127.24" cy="598.79" r="68.99"/><circle class="cls-4" cx="208.69" cy="681.32" r="31.16"/><path class="cls-8" d="M-46.65,446.24-167,325.92c-7.46-7.47-36.56,16.88-36.56,16.88a4.61,4.61,0,0,0,0,6.52L-70.65,482.21a4.63,4.63,0,0,0,6.52,0S-38.35,454.53-46.65,446.24Z" transform="translate(239.04 295.44)"/><circle class="cls-4" cx="55.54" cy="646.78" r="5.6"/><circle class="cls-4" cx="170.18" cy="761.42" r="5.6"/><circle class="cls-4" cx="165.19" cy="740.61" r="5.6"/><circle class="cls-4" cx="79.9" cy="655.31" r="5.6"/><circle class="cls-4" cx="311.34" cy="678.44" r="4.49"/><circle class="cls-4" cx="20.11" cy="612.91" r="4.49"/><circle class="cls-4" cx="132.96" cy="500.07" r="4.49"/><circle class="cls-4" cx="198.49" cy="791.29" r="4.49"/><circle class="cls-9" cx="126.7" cy="599.33" r="16.76"/><circle class="cls-10" cx="126.64" cy="599.39" r="18.95"/><circle class="cls-9" cx="208.69" cy="681.32" r="16.76"/><circle class="cls-10" cx="208.69" cy="681.32" r="18.87"/><path class="cls-11" d="M-18.51,397.73a16.38,16.38,0,0,1-4.19,3.06l-.8-3.1a.77.77,0,0,0-.94-.55l-5.33,1.38a.77.77,0,0,0-.55.93l.82,3.17a16.72,16.72,0,0,1-10-2.66l2.29-2.28a.77.77,0,0,0,0-1.09l-3.9-3.89a.76.76,0,0,0-1.08,0L-44.43,395a16.7,16.7,0,0,1-2.63-10.43l3.14.9a.76.76,0,0,0,1-.52l1.52-5.29a.77.77,0,0,0-.52-.95L-45,377.8A17.28,17.28,0,0,1-42.21,374a16.82,16.82,0,0,1,4.51-3.22l.83,3.23a.77.77,0,0,0,.94.55l5.33-1.37a.77.77,0,0,0,.55-.94l-.81-3.15a16.74,16.74,0,0,1,9.6,2.67l-2.28,2.28a.77.77,0,0,0,0,1.09l3.89,3.89a.77.77,0,0,0,1.09,0l2.28-2.28a16.78,16.78,0,0,1,2.66,10.08L-16.7,386a.76.76,0,0,0-.95.53l-1.53,5.29a.76.76,0,0,0,.53.94l3.15.91A16.42,16.42,0,0,1-18.51,397.73Z" transform="translate(239.04 295.44)"/><path class="cls-11" d="M-100.5,315.74a16.38,16.38,0,0,1-4.19,3.06l-.8-3.1a.77.77,0,0,0-.94-.55l-5.33,1.38a.77.77,0,0,0-.55.93l.82,3.17a16.79,16.79,0,0,1-10-2.66l2.29-2.28a.77.77,0,0,0,0-1.09l-3.9-3.89a.76.76,0,0,0-1.08,0l-2.28,2.28A16.7,16.7,0,0,1-129,302.56l3.14.9a.76.76,0,0,0,1-.52l1.52-5.29a.77.77,0,0,0-.52-.95l-3.08-.89A17.28,17.28,0,0,1-124.2,292a16.82,16.82,0,0,1,4.51-3.22l.83,3.23a.77.77,0,0,0,.94.55l5.33-1.37a.77.77,0,0,0,.55-.94l-.81-3.15a16.74,16.74,0,0,1,9.6,2.67l-2.28,2.28a.77.77,0,0,0,0,1.09l3.89,3.89a.77.77,0,0,0,1.09,0l2.28-2.28a16.78,16.78,0,0,1,2.66,10.08l-3.08-.89a.76.76,0,0,0-1,.53l-1.53,5.28a.77.77,0,0,0,.53.95l3.15.91A16.42,16.42,0,0,1-100.5,315.74Z" transform="translate(239.04 295.44)"/><path class="cls-12" d="M61.18,380.21l-165-165a4.63,4.63,0,0,0-6.52,0l-73.47,73.46a4.63,4.63,0,0,0,0,6.52l165,165a4.61,4.61,0,0,0,6.52,0l73.46-73.46A4.61,4.61,0,0,0,61.18,380.21Zm-83,38.69a4.63,4.63,0,0,1-6.52,0L-142.5,304.71a4.63,4.63,0,0,1,0-6.52L-118,273.74a4.61,4.61,0,0,1,6.52,0L2.66,387.93a4.61,4.61,0,0,1,0,6.52Z" transform="translate(239.04 295.44)"/><text class="cls-13" transform="translate(154.77 578.74) rotate(45)">best ballads</text><line class="cls-9" x1="156.34" y1="556.77" x2="278.39" y2="678.82"/><line class="cls-9" x1="270.97" y1="687.51" x2="149.09" y2="565.63"/><path class="cls-8" d="M28.09,382.37c-1.78-6.17-1.67-10.83.2-11.72.3-.15,1.8-.74,5.22,2.29q4.89.94,5.14,2.6Q39,378.11,28.09,382.37Z" transform="translate(239.04 295.44)"/><path class="cls-8" d="M27.12,389c1.5-3.17,3.23-5,4.32-4.72.18.05,1,.34,1.31,2.81,1.1,1.44,1.49,2.42,1.16,2.93C33.4,390.8,31.13,390.46,27.12,389Z" transform="translate(239.04 295.44)"/><path class="cls-4" d="M-77.19,63.88H186.64a8.8,8.8,0,0,1,8.8,8.8V240.08a19.18,19.18,0,0,1-19.18,19.18H-77.19a19.18,19.18,0,0,1-19.18-19.18v-157A19.18,19.18,0,0,1-77.19,63.88Z" transform="translate(367.8 307.74) rotate(45)"/><g class="cls-5"><path class="cls-6" d="M81,311.09a8.79,8.79,0,0,1-6.26-2.59L-110.1,123.7a8.87,8.87,0,0,1,0-12.54L9.73-8.67A8.81,8.81,0,0,1,16-11.26a8.81,8.81,0,0,1,6.27,2.59l184.8,184.8a8.88,8.88,0,0,1,0,12.54L87.24,308.5A8.79,8.79,0,0,1,81,311.09Z" transform="translate(239.04 295.44)"/><path class="cls-7" d="M16-7.85a5.44,5.44,0,0,1,3.86,1.59l184.8,184.81a5.47,5.47,0,0,1,0,7.71L84.83,306.09a5.47,5.47,0,0,1-7.71,0l-184.81-184.8a5.48,5.48,0,0,1,0-7.72L12.14-6.26A5.44,5.44,0,0,1,16-7.85Zm0-6.82a12.17,12.17,0,0,0-8.68,3.59L-112.51,108.75a12.15,12.15,0,0,0-3.59,8.68,12.17,12.17,0,0,0,3.59,8.68l184.8,184.8a12.3,12.3,0,0,0,17.37,0L209.49,191.09a12.3,12.3,0,0,0,0-17.37L24.68-11.08A12.17,12.17,0,0,0,16-14.67Z" transform="translate(239.04 295.44)"/></g><circle class="cls-7" cx="250.18" cy="397.85" r="68.99"/><path class="cls-7" d="M11.14,171.59A69,69,0,0,1-37.8,151.35a69.19,69.19,0,0,1,0-97.88,69.21,69.21,0,0,1,97.88,97.88A69,69,0,0,1,11.14,171.59Zm0-137.91A68.51,68.51,0,0,0-37.48,53.79a68.76,68.76,0,0,0,0,97.24,68.84,68.84,0,0,0,97.24,0l.16.16-.16-.16a68.84,68.84,0,0,0,0-97.24A68.53,68.53,0,0,0,11.14,33.68Z" transform="translate(239.04 295.44)"/><circle class="cls-7" cx="331.63" cy="480.38" r="31.16"/><path class="cls-7" d="M92.59,216.33a31.39,31.39,0,1,1,22.19-9.2h0A31.18,31.18,0,0,1,92.59,216.33Zm0-62.32a30.93,30.93,0,1,0,21.87,52.8h0A30.93,30.93,0,0,0,92.59,154Z" transform="translate(239.04 295.44)"/><g class="cls-5"><path class="cls-14" d="M76.3,245.3-44,125c-7.47-7.47-36.57,16.88-36.57,16.88a4.63,4.63,0,0,0,0,6.52L52.29,281.27a4.63,4.63,0,0,0,6.52,0S84.59,253.59,76.3,245.3Z" transform="translate(239.04 295.44)"/><path class="cls-7" d="M55.55,282.84a4.81,4.81,0,0,1-3.42-1.41L-80.75,148.54a4.79,4.79,0,0,1-1.41-3.42,4.81,4.81,0,0,1,1.41-3.42c1.21-1,29.36-24.41,36.89-16.88L76.46,245.14C84.81,253.49,60,280.29,59,281.42A4.8,4.8,0,0,1,55.55,282.84ZM-48,123.77c-10.44,0-32.15,18.06-32.4,18.27a4.34,4.34,0,0,0-1.27,3.08,4.36,4.36,0,0,0,1.28,3.1L52.45,281.11a4.42,4.42,0,0,0,6.2,0c.25-.27,25.53-27.61,17.48-35.65L-44.19,125.14A5.23,5.23,0,0,0-48,123.77Z" transform="translate(239.04 295.44)"/></g><circle class="cls-7" cx="178.48" cy="445.84" r="5.6"/><path class="cls-7" d="M-60.56,156.22a5.84,5.84,0,0,1-4.12-1.7,5.85,5.85,0,0,1,0-8.24,5.84,5.84,0,0,1,8.24,0,5.84,5.84,0,0,1,0,8.24h0A5.84,5.84,0,0,1-60.56,156.22Zm0-11.19a5.36,5.36,0,0,0-3.79,1.57,5.36,5.36,0,0,0,0,7.59,5.36,5.36,0,0,0,7.59,0h0a5.38,5.38,0,0,0,0-7.59A5.39,5.39,0,0,0-60.56,145Z" transform="translate(239.04 295.44)"/><circle class="cls-7" cx="293.12" cy="560.48" r="5.6"/><path class="cls-7" d="M54.08,270.86a5.83,5.83,0,1,1,4.12-1.71h0A5.79,5.79,0,0,1,54.08,270.86Zm0-11.19a5.37,5.37,0,1,0,3.8,1.57A5.37,5.37,0,0,0,54.08,259.67Z" transform="translate(239.04 295.44)"/><circle class="cls-7" cx="288.13" cy="539.67" r="5.6"/><path class="cls-7" d="M49.09,250a5.76,5.76,0,0,1-4.11-1.7,5.82,5.82,0,1,1,8.23,0h0A5.8,5.8,0,0,1,49.09,250Zm0-11.18A5.37,5.37,0,0,0,45.3,248a5.38,5.38,0,0,0,7.59,0h0a5.37,5.37,0,0,0-3.8-9.16Z" transform="translate(239.04 295.44)"/><circle class="cls-7" cx="202.84" cy="454.37" r="5.6"/><path class="cls-7" d="M-36.2,164.75A5.79,5.79,0,0,1-40.32,163a5.82,5.82,0,0,1,0-8.23,5.82,5.82,0,0,1,8.23,0,5.82,5.82,0,0,1,0,8.23h0A5.77,5.77,0,0,1-36.2,164.75Zm0-11.19a5.39,5.39,0,0,0-3.8,1.57,5.38,5.38,0,0,0,0,7.59,5.37,5.37,0,0,0,7.59,0h0a5.38,5.38,0,0,0,0-7.59A5.36,5.36,0,0,0-36.2,153.56Z" transform="translate(239.04 295.44)"/><circle class="cls-7" cx="434.28" cy="477.5" r="4.49"/><path class="cls-7" d="M195.24,186.78a4.72,4.72,0,1,1,3.34-1.38h0A4.7,4.7,0,0,1,195.24,186.78Zm0-9a4.26,4.26,0,1,0,3,7.28h0a4.26,4.26,0,0,0-3-7.28Z" transform="translate(239.04 295.44)"/><circle class="cls-7" cx="143.06" cy="411.97" r="4.49"/><path class="cls-7" d="M-96,121.25a4.7,4.7,0,0,1-3.33-1.38,4.71,4.71,0,0,1-1.39-3.34,4.72,4.72,0,0,1,1.39-3.34A4.67,4.67,0,0,1-96,111.81a4.7,4.7,0,0,1,3.34,1.38,4.73,4.73,0,0,1,0,6.68h0A4.71,4.71,0,0,1-96,121.25Zm0-9a4.2,4.2,0,0,0-3,1.25,4.2,4.2,0,0,0-1.25,3,4.24,4.24,0,0,0,1.25,3,4.27,4.27,0,0,0,6,0h0a4.27,4.27,0,0,0,0-6A4.24,4.24,0,0,0-96,112.27Z" transform="translate(239.04 295.44)"/><circle class="cls-7" cx="255.9" cy="299.13" r="4.49"/><path class="cls-7" d="M16.86,8.4a4.72,4.72,0,0,1,0-9.44A4.67,4.67,0,0,1,20.2.35,4.72,4.72,0,0,1,20.2,7h0A4.71,4.71,0,0,1,16.86,8.4Zm0-9a4.2,4.2,0,0,0-3,1.25,4.26,4.26,0,0,0,6,6h0a4.27,4.27,0,0,0-3-7.28Z" transform="translate(239.04 295.44)"/><circle class="cls-7" cx="321.43" cy="590.35" r="4.49"/><path class="cls-7" d="M82.39,299.63a4.72,4.72,0,1,1,3.34-1.38A4.71,4.71,0,0,1,82.39,299.63Zm0-9a4.27,4.27,0,1,0,3,1.25A4.24,4.24,0,0,0,82.39,290.64Z" transform="translate(239.04 295.44)"/><path class="cls-7" d="M10.6,119.93a17,17,0,0,1-12-5,17,17,0,0,1,0-24,17,17,0,1,1,24,24h0A16.94,16.94,0,0,1,10.6,119.93Zm0-33.51a16.53,16.53,0,1,0,11.69,28.22l.16.16-.16-.16A16.53,16.53,0,0,0,10.6,86.42Z" transform="translate(239.04 295.44)"/><circle class="cls-10" cx="249.58" cy="398.45" r="18.95"/><path class="cls-7" d="M92.59,201.92a17,17,0,1,1,12-5h0A16.94,16.94,0,0,1,92.59,201.92Zm0-33.51a16.53,16.53,0,1,0,11.69,28.22h0a16.53,16.53,0,0,0-11.69-28.22Z" transform="translate(239.04 295.44)"/><circle class="cls-10" cx="331.63" cy="480.38" r="18.87"/><path class="cls-11" d="M104.44,196.79a16.6,16.6,0,0,1-4.2,3.06l-.8-3.1a.76.76,0,0,0-.93-.55l-5.33,1.38a.77.77,0,0,0-.56.93l.82,3.17a16.67,16.67,0,0,1-10-2.66l2.28-2.28a.77.77,0,0,0,0-1.09l-3.89-3.89a.77.77,0,0,0-1.09,0L78.51,194a16.7,16.7,0,0,1-2.63-10.43l3.14.9a.76.76,0,0,0,1-.52l1.53-5.29a.77.77,0,0,0-.53-.95l-3.07-.89a16.78,16.78,0,0,1,7.34-7l.84,3.23a.76.76,0,0,0,.93.55l5.33-1.37a.77.77,0,0,0,.55-.94l-.81-3.15a16.74,16.74,0,0,1,9.6,2.67l-2.28,2.28a.77.77,0,0,0,0,1.09l3.9,3.89a.76.76,0,0,0,1.08,0l2.28-2.28a16.71,16.71,0,0,1,2.66,10.08l-3.08-.89a.76.76,0,0,0-.95.53l-1.52,5.28a.76.76,0,0,0,.52.95l3.15.91A16.63,16.63,0,0,1,104.44,196.79Z" transform="translate(239.04 295.44)"/><path class="cls-11" d="M22.45,114.8a16.6,16.6,0,0,1-4.2,3.06l-.8-3.1a.76.76,0,0,0-.93-.55l-5.33,1.38a.77.77,0,0,0-.56.93l.82,3.17A16.74,16.74,0,0,1,1.5,117l2.28-2.28a.77.77,0,0,0,0-1.09l-3.89-3.89a.77.77,0,0,0-1.09,0l-2.28,2.28a16.7,16.7,0,0,1-2.63-10.43l3.14.9A.76.76,0,0,0-2,102l1.53-5.29A.77.77,0,0,0-1,95.76l-3.07-.89a16.78,16.78,0,0,1,7.34-7l.84,3.23a.76.76,0,0,0,.93.55l5.33-1.37a.77.77,0,0,0,.55-.94l-.81-3.15a16.74,16.74,0,0,1,9.6,2.67l-2.28,2.28a.77.77,0,0,0,0,1.09l3.9,3.89a.76.76,0,0,0,1.08,0l2.28-2.28a16.71,16.71,0,0,1,2.66,10.08L24.25,103a.76.76,0,0,0-.95.53l-1.52,5.28a.76.76,0,0,0,.52,1l3.15.91A16.63,16.63,0,0,1,22.45,114.8Z" transform="translate(239.04 295.44)"/><path class="cls-15" d="M184.13,179.27l-165-165a4.63,4.63,0,0,0-6.52,0L-60.85,87.74a4.63,4.63,0,0,0,0,6.52l165,165a4.61,4.61,0,0,0,6.52,0l73.47-73.46A4.63,4.63,0,0,0,184.13,179.27Zm-83,38.69a4.63,4.63,0,0,1-6.52,0L-19.56,103.77a4.63,4.63,0,0,1,0-6.52L4.89,72.8a4.61,4.61,0,0,1,6.52,0L125.61,187a4.63,4.63,0,0,1,0,6.52Z" transform="translate(239.04 295.44)"/><text class="cls-13" transform="translate(277.72 377.8) rotate(45)">best ballads</text><line class="cls-9" x1="279.28" y1="355.83" x2="401.33" y2="477.88"/><line class="cls-9" x1="393.91" y1="486.57" x2="272.03" y2="364.69"/><path class="cls-8" d="M151,181.43c-1.78-6.17-1.67-10.83.2-11.72.31-.15,1.8-.74,5.22,2.29q4.89.94,5.14,2.6Q162,177.17,151,181.43Z" transform="translate(239.04 295.44)"/><path class="cls-8" d="M150.06,188.05c1.5-3.17,3.23-5,4.32-4.72.18,0,1,.34,1.31,2.81,1.1,1.44,1.49,2.42,1.16,2.93C156.34,189.86,154.07,189.52,150.06,188.05Z" transform="translate(239.04 295.44)"/><path class="cls-4" d="M-33-216.89H230.82a8.8,8.8,0,0,1,8.8,8.8V-40.69a19.18,19.18,0,0,1-19.18,19.18H-33A19.18,19.18,0,0,1-52.19-40.69v-157A19.18,19.18,0,0,1-33-216.89Z" transform="translate(182.2 194.27) rotate(45)"/><g class="cls-5"><path class="cls-6" d="M125.15,30.32a8.81,8.81,0,0,1-6.27-2.59l-184.8-184.8a8.87,8.87,0,0,1,0-12.54L53.91-289.44A8.79,8.79,0,0,1,60.18-292a8.81,8.81,0,0,1,6.27,2.59l184.8,184.8a8.81,8.81,0,0,1,2.59,6.27,8.79,8.79,0,0,1-2.59,6.27L131.42,27.73A8.79,8.79,0,0,1,125.15,30.32Z" transform="translate(239.04 295.44)"/><path class="cls-7" d="M60.18-288.62A5.46,5.46,0,0,1,64-287l184.8,184.8a5.48,5.48,0,0,1,0,7.72L129,25.32a5.48,5.48,0,0,1-7.72,0l-184.8-184.8a5.48,5.48,0,0,1,0-7.72L56.32-287a5.44,5.44,0,0,1,3.86-1.59Zm0-6.82a12.15,12.15,0,0,0-8.68,3.59L-68.33-172a12.15,12.15,0,0,0-3.59,8.68,12.18,12.18,0,0,0,3.59,8.68l184.8,184.8a12.29,12.29,0,0,0,17.36,0L253.66-89.69a12.15,12.15,0,0,0,3.59-8.68,12.18,12.18,0,0,0-3.59-8.68L68.86-291.85a12.18,12.18,0,0,0-8.68-3.59Z" transform="translate(239.04 295.44)"/></g><circle class="cls-7" cx="294.36" cy="117.08" r="68.99"/><path class="cls-7" d="M55.32-109.18A69,69,0,0,1,6.37-129.42,68.79,68.79,0,0,1-13.9-178.36,68.8,68.8,0,0,1,6.37-227.31a69.31,69.31,0,0,1,97.89,0,69.31,69.31,0,0,1,0,97.89A69,69,0,0,1,55.32-109.18Zm0-137.91A68.51,68.51,0,0,0,6.7-227a68.28,68.28,0,0,0-20.14,48.62A68.31,68.31,0,0,0,6.7-129.74a68.85,68.85,0,0,0,97.24,0l.16.16-.16-.16a68.84,68.84,0,0,0,0-97.24A68.55,68.55,0,0,0,55.32-247.09Z" transform="translate(239.04 295.44)"/><circle class="cls-7" cx="375.81" cy="199.61" r="31.16"/><path class="cls-7" d="M136.76-64.45a31.17,31.17,0,0,1-22.19-9.19,31.17,31.17,0,0,1-9.19-22.19A31.15,31.15,0,0,1,114.57-118a31.18,31.18,0,0,1,22.19-9.2A31.19,31.19,0,0,1,159-118a31.2,31.2,0,0,1,9.19,22.19A31.21,31.21,0,0,1,159-73.64h0A31.18,31.18,0,0,1,136.76-64.45Zm0-62.31a30.69,30.69,0,0,0-21.87,9.06,30.73,30.73,0,0,0-9.06,21.87A30.73,30.73,0,0,0,114.89-74a30.73,30.73,0,0,0,21.87,9.06A30.72,30.72,0,0,0,158.63-74h0a30.7,30.7,0,0,0,9.07-21.87,30.7,30.7,0,0,0-9.07-21.87A30.68,30.68,0,0,0,136.76-126.76Z" transform="translate(239.04 295.44)"/><g class="cls-5"><path class="cls-14" d="M120.47-35.48.15-155.8c-7.47-7.46-36.56,16.89-36.56,16.89a4.61,4.61,0,0,0,0,6.52L96.47.5A4.63,4.63,0,0,0,103,.5S128.77-27.18,120.47-35.48Z" transform="translate(239.04 295.44)"/><path class="cls-7" d="M99.73,2.07A4.79,4.79,0,0,1,96.31.66L-36.57-132.23A4.8,4.8,0,0,1-38-135.65a4.82,4.82,0,0,1,1.42-3.42c1.21-1,29.36-24.41,36.88-16.89L120.63-35.64C129-27.28,104.21-.49,103.16.65A4.8,4.8,0,0,1,99.73,2.07ZM-3.86-157c-10.45,0-32.16,18.06-32.41,18.27a4.33,4.33,0,0,0-1.26,3.08,4.31,4.31,0,0,0,1.28,3.1L96.63.33a4.33,4.33,0,0,0,3.1,1.28,4.35,4.35,0,0,0,3.1-1.28c.25-.26,25.53-27.6,17.48-35.64L0-155.63A5.19,5.19,0,0,0-3.86-157Z" transform="translate(239.04 295.44)"/></g><circle class="cls-7" cx="222.66" cy="165.07" r="5.6"/><path class="cls-7" d="M-16.38-124.55a5.81,5.81,0,0,1-4.12-1.71,5.82,5.82,0,0,1,0-8.23,5.84,5.84,0,0,1,8.24,0,5.82,5.82,0,0,1,0,8.23h0A5.81,5.81,0,0,1-16.38-124.55Zm0-11.19a5.4,5.4,0,0,0-3.8,1.57,5.38,5.38,0,0,0,0,7.59,5.36,5.36,0,0,0,7.59,0h0a5.36,5.36,0,0,0,0-7.59A5.36,5.36,0,0,0-16.38-135.74Z" transform="translate(239.04 295.44)"/><circle class="cls-7" cx="337.3" cy="279.71" r="5.6"/><path class="cls-7" d="M98.26-9.91a5.79,5.79,0,0,1-4.12-1.71,5.82,5.82,0,0,1,0-8.23,5.79,5.79,0,0,1,4.12-1.71,5.78,5.78,0,0,1,4.11,1.71,5.82,5.82,0,0,1,0,8.23h0A5.78,5.78,0,0,1,98.26-9.91Zm0-11.19a5.36,5.36,0,0,0-3.8,1.57,5.38,5.38,0,0,0,0,7.59,5.36,5.36,0,0,0,3.8,1.57,5.33,5.33,0,0,0,3.79-1.57,5.36,5.36,0,0,0,0-7.59A5.33,5.33,0,0,0,98.26-21.1Z" transform="translate(239.04 295.44)"/><circle class="cls-7" cx="332.31" cy="258.9" r="5.6"/><path class="cls-7" d="M93.27-30.73a5.8,5.8,0,0,1-4.12-1.7,5.82,5.82,0,0,1,0-8.23,5.83,5.83,0,0,1,8.24,0,5.82,5.82,0,0,1,0,8.23h0A5.8,5.8,0,0,1,93.27-30.73Zm0-11.18a5.36,5.36,0,0,0-3.8,1.57,5.38,5.38,0,0,0,0,7.59,5.39,5.39,0,0,0,7.6,0h0a5.38,5.38,0,0,0,0-7.59A5.36,5.36,0,0,0,93.27-41.91Z" transform="translate(239.04 295.44)"/><circle class="cls-7" cx="247.01" cy="173.6" r="5.6"/><path class="cls-7" d="M8-116a5.77,5.77,0,0,1-4.11-1.71,5.82,5.82,0,0,1,0-8.23,5.82,5.82,0,0,1,8.23,0,5.82,5.82,0,0,1,0,8.23h0A5.81,5.81,0,0,1,8-116Zm0-11.19a5.32,5.32,0,0,0-3.79,1.57,5.36,5.36,0,0,0,0,7.59,5.38,5.38,0,0,0,7.59,0h0a5.38,5.38,0,0,0,0-7.59A5.34,5.34,0,0,0,8-127.21Z" transform="translate(239.04 295.44)"/><circle class="cls-7" cx="478.46" cy="196.73" r="4.49"/><path class="cls-7" d="M239.42-94a4.7,4.7,0,0,1-3.34-1.38,4.73,4.73,0,0,1,0-6.68,4.72,4.72,0,0,1,6.67,0,4.73,4.73,0,0,1,0,6.68h0A4.67,4.67,0,0,1,239.42-94Zm0-9a4.26,4.26,0,0,0-3,1.24,4.27,4.27,0,0,0,0,6,4.24,4.24,0,0,0,3,1.25,4.2,4.2,0,0,0,3-1.25h0a4.26,4.26,0,0,0,0-6A4.24,4.24,0,0,0,239.42-103Z" transform="translate(239.04 295.44)"/><circle class="cls-7" cx="187.23" cy="131.2" r="4.49"/><path class="cls-7" d="M-51.81-159.52a4.71,4.71,0,0,1-3.34-1.38,4.7,4.7,0,0,1-1.38-3.34,4.7,4.7,0,0,1,1.38-3.34A4.71,4.71,0,0,1-51.81-169a4.7,4.7,0,0,1,3.34,1.38,4.73,4.73,0,0,1,0,6.68h0A4.71,4.71,0,0,1-51.81-159.52Zm0-9a4.24,4.24,0,0,0-3,1.25,4.24,4.24,0,0,0-1.25,3,4.24,4.24,0,0,0,1.25,3,4.27,4.27,0,0,0,6,0h0a4.29,4.29,0,0,0,0-6A4.28,4.28,0,0,0-51.81-168.51Z" transform="translate(239.04 295.44)"/><circle class="cls-7" cx="300.08" cy="18.35" r="4.49"/><path class="cls-7" d="M61-272.37a4.71,4.71,0,0,1-3.34-1.38,4.73,4.73,0,0,1,0-6.68A4.7,4.7,0,0,1,61-281.81a4.7,4.7,0,0,1,3.34,1.38,4.71,4.71,0,0,1,1.38,3.34,4.7,4.7,0,0,1-1.38,3.34h0A4.71,4.71,0,0,1,61-272.37Zm0-9a4.24,4.24,0,0,0-3,1.25,4.27,4.27,0,0,0,0,6,4.27,4.27,0,0,0,6,0h0a4.24,4.24,0,0,0,1.25-3,4.2,4.2,0,0,0-1.25-3A4.2,4.2,0,0,0,61-281.35Z" transform="translate(239.04 295.44)"/><circle class="cls-7" cx="365.61" cy="309.58" r="4.49"/><path class="cls-7" d="M126.57,18.86a4.67,4.67,0,0,1-3.34-1.39,4.71,4.71,0,1,1,3.34,1.39Zm0-9a4.27,4.27,0,1,0,0,8.53,4.2,4.2,0,0,0,3-1.25,4.27,4.27,0,0,0-3-7.28Z" transform="translate(239.04 295.44)"/><path class="cls-7" d="M54.77-160.84a16.94,16.94,0,0,1-12-5,16.87,16.87,0,0,1-5-12,16.85,16.85,0,0,1,5-12,17,17,0,0,1,24,0,17,17,0,0,1,0,24h0A17,17,0,0,1,54.77-160.84Zm0-33.51a16.48,16.48,0,0,0-11.69,4.84,16.42,16.42,0,0,0-4.84,11.69,16.44,16.44,0,0,0,4.84,11.69,16.54,16.54,0,0,0,23.38,0l.16.16-.16-.16a16.54,16.54,0,0,0,0-23.38A16.44,16.44,0,0,0,54.77-194.35Z" transform="translate(239.04 295.44)"/><circle class="cls-10" cx="293.76" cy="117.68" r="18.95"/><path class="cls-7" d="M136.76-78.85a16.94,16.94,0,0,1-12-5,17,17,0,0,1,0-24,17,17,0,0,1,24,0,17,17,0,0,1,0,24h0A17,17,0,0,1,136.76-78.85Zm0-33.51a16.48,16.48,0,0,0-11.69,4.84,16.54,16.54,0,0,0,0,23.38,16.55,16.55,0,0,0,23.38,0h0a16.54,16.54,0,0,0,0-23.38A16.44,16.44,0,0,0,136.76-112.36Z" transform="translate(239.04 295.44)"/><circle class="cls-10" cx="375.81" cy="199.61" r="18.87"/><path class="cls-11" d="M148.61-84a16.38,16.38,0,0,1-4.19,3.06l-.8-3.1a.77.77,0,0,0-.94-.55l-5.33,1.38a.77.77,0,0,0-.55.93l.82,3.16a16.71,16.71,0,0,1-10-2.65L130-84a.79.79,0,0,0,0-1.09L126.05-89A.76.76,0,0,0,125-89l-2.29,2.28a16.77,16.77,0,0,1-2.63-10.43l3.15.9a.77.77,0,0,0,1-.52l1.52-5.29a.76.76,0,0,0-.52-1l-3.08-.89a17,17,0,0,1,2.84-3.77,16.66,16.66,0,0,1,4.51-3.22l.83,3.23a.77.77,0,0,0,.94.55l5.33-1.37a.77.77,0,0,0,.55-.94l-.81-3.15a16.66,16.66,0,0,1,9.6,2.67l-2.28,2.28a.77.77,0,0,0,0,1.09l3.89,3.89a.77.77,0,0,0,1.09,0l2.28-2.28a16.77,16.77,0,0,1,2.66,10.08l-3.08-.89a.76.76,0,0,0-.95.52l-1.53,5.29a.77.77,0,0,0,.53,1l3.15.91A16.79,16.79,0,0,1,148.61-84Z" transform="translate(239.04 295.44)"/><path class="cls-11" d="M66.62-166a16.38,16.38,0,0,1-4.19,3.06l-.8-3.1a.77.77,0,0,0-.94-.55l-5.33,1.37a.79.79,0,0,0-.55.94l.82,3.16a16.71,16.71,0,0,1-10-2.65L48-166a.79.79,0,0,0,0-1.09L44.06-171A.76.76,0,0,0,43-171l-2.29,2.28a16.79,16.79,0,0,1-2.63-10.43l3.15.9a.77.77,0,0,0,.95-.52l1.52-5.29a.76.76,0,0,0-.52-.95l-3.08-.89a17,17,0,0,1,2.84-3.77,16.66,16.66,0,0,1,4.51-3.22l.83,3.23a.77.77,0,0,0,.94.55l5.33-1.37a.77.77,0,0,0,.55-.94l-.81-3.15a16.68,16.68,0,0,1,9.6,2.67l-2.28,2.28a.77.77,0,0,0,0,1.09l3.89,3.89a.77.77,0,0,0,1.09,0l2.28-2.28a16.77,16.77,0,0,1,2.66,10.08l-3.08-.89a.76.76,0,0,0-1,.52L66-171.92a.77.77,0,0,0,.53.95l3.15.91A16.79,16.79,0,0,1,66.62-166Z" transform="translate(239.04 295.44)"/><path class="cls-15" d="M228.3-101.5l-165-165a4.6,4.6,0,0,0-6.51,0L-16.67-193a4.63,4.63,0,0,0,0,6.52l165,165a4.63,4.63,0,0,0,6.52,0L228.3-95A4.61,4.61,0,0,0,228.3-101.5Zm-83,38.69a4.63,4.63,0,0,1-6.52,0L24.62-177a4.61,4.61,0,0,1,0-6.52L49.07-208a4.63,4.63,0,0,1,6.52,0L169.78-93.78a4.61,4.61,0,0,1,0,6.52Z" transform="translate(239.04 295.44)"/><text class="cls-13" transform="translate(321.89 97.03) rotate(45)">best ballads</text><line class="cls-9" x1="323.46" y1="75.05" x2="445.51" y2="197.1"/><line class="cls-9" x1="438.09" y1="205.8" x2="316.21" y2="83.91"/><path class="cls-8" d="M195.2-99.34c-1.77-6.17-1.66-10.83.21-11.72.3-.15,1.8-.74,5.21,2.28,3.27.64,5,1.51,5.15,2.61Q206.15-103.6,195.2-99.34Z" transform="translate(239.04 295.44)"/><path class="cls-8" d="M194.24-92.72c1.5-3.17,3.23-5,4.32-4.73.17,0,1,.35,1.31,2.82,1.1,1.44,1.49,2.42,1.16,2.93Q200.25-90.51,194.24-92.72Z" transform="translate(239.04 295.44)"/><path class="cls-4" d="M388.08,529.15H651.91a8.8,8.8,0,0,1,8.8,8.8V705.35a19.18,19.18,0,0,1-19.18,19.18H388.08a19.18,19.18,0,0,1-19.18-19.18v-157a19.18,19.18,0,0,1,19.18-19.18Z" transform="translate(833.07 115.02) rotate(45)"/><g class="cls-5"><path class="cls-6" d="M546.24,776.36a8.81,8.81,0,0,1-6.27-2.59L355.17,589a8.87,8.87,0,0,1,0-12.54L475,456.6a8.87,8.87,0,0,1,12.54,0L672.34,641.4a8.88,8.88,0,0,1,0,12.54L552.51,773.77A8.81,8.81,0,0,1,546.24,776.36Z" transform="translate(239.04 295.44)"/><path class="cls-7" d="M481.27,457.42a5.44,5.44,0,0,1,3.85,1.59l184.81,184.8a5.48,5.48,0,0,1,0,7.72L550.1,771.36a5.48,5.48,0,0,1-7.72,0L357.58,586.55a5.47,5.47,0,0,1,0-7.71L477.41,459a5.44,5.44,0,0,1,3.86-1.59Zm0-6.83a12.23,12.23,0,0,0-8.69,3.59L352.75,574a12.32,12.32,0,0,0,0,17.37l184.81,184.8a12.29,12.29,0,0,0,17.36,0L674.75,656.35a12.29,12.29,0,0,0,0-17.36L490,454.18a12.23,12.23,0,0,0-8.68-3.59Z" transform="translate(239.04 295.44)"/></g><circle class="cls-7" cx="715.45" cy="863.12" r="68.99"/><path class="cls-7" d="M476.4,636.85a69.18,69.18,0,1,1,49-20.23A69,69,0,0,1,476.4,636.85Zm0-137.9A68.74,68.74,0,1,0,525,616.29h0A68.72,68.72,0,0,0,476.4,499Z" transform="translate(239.04 295.44)"/><circle class="cls-7" cx="796.89" cy="945.65" r="31.16"/><path class="cls-7" d="M557.85,681.59a31.38,31.38,0,1,1,22.2-9.19h0A31.19,31.19,0,0,1,557.85,681.59Zm0-62.3a30.93,30.93,0,1,0,21.87,52.79h0a30.92,30.92,0,0,0-21.87-52.79Z" transform="translate(239.04 295.44)"/><g class="cls-5"><path class="cls-14" d="M541.56,710.56,421.24,590.24c-7.47-7.47-36.57,16.89-36.57,16.89a4.63,4.63,0,0,0,0,6.52L517.56,746.53a4.61,4.61,0,0,0,6.52,0S549.86,718.86,541.56,710.56Z" transform="translate(239.04 295.44)"/><path class="cls-7" d="M520.82,748.11a4.79,4.79,0,0,1-3.42-1.42L384.51,613.81a4.85,4.85,0,0,1,0-6.84c1.22-1,29.36-24.41,36.89-16.89L541.72,710.4c8.36,8.36-16.42,35.15-17.48,36.29A4.83,4.83,0,0,1,520.82,748.11ZM417.23,589c-10.45,0-32.16,18.05-32.41,18.26a4.41,4.41,0,0,0,0,6.19L517.72,746.37a4.39,4.39,0,0,0,6.2,0c.25-.27,25.53-27.6,17.48-35.65L421.08,590.4A5.22,5.22,0,0,0,417.23,589Z" transform="translate(239.04 295.44)"/></g><circle class="cls-7" cx="643.75" cy="911.11" r="5.6"/><path class="cls-7" d="M404.71,621.48a5.82,5.82,0,1,1,4.12-1.7h0A5.8,5.8,0,0,1,404.71,621.48Zm0-11.18a5.37,5.37,0,1,0,3.79,1.57A5.34,5.34,0,0,0,404.71,610.3Z" transform="translate(239.04 295.44)"/><circle class="cls-7" cx="758.39" cy="1025.75" r="5.6"/><path class="cls-7" d="M519.35,736.12a5.82,5.82,0,1,1,4.11-1.7h0A5.8,5.8,0,0,1,519.35,736.12Zm0-11.18a5.37,5.37,0,1,0,3.79,1.57A5.34,5.34,0,0,0,519.35,724.94Z" transform="translate(239.04 295.44)"/><circle class="cls-7" cx="753.4" cy="1004.93" r="5.6"/><path class="cls-7" d="M514.36,715.31a5.84,5.84,0,0,1-4.12-1.7,5.83,5.83,0,0,1,8.24-8.24,5.82,5.82,0,0,1-4.12,9.94Zm0-11.19a5.39,5.39,0,1,0,3.79,1.58A5.34,5.34,0,0,0,514.36,704.12Z" transform="translate(239.04 295.44)"/><circle class="cls-7" cx="668.1" cy="919.64" r="5.6"/><path class="cls-7" d="M429.06,630a5.82,5.82,0,1,1,4.12-1.7h0A5.8,5.8,0,0,1,429.06,630Zm0-11.18a5.37,5.37,0,0,0-3.79,9.16,5.37,5.37,0,1,0,3.79-9.16Z" transform="translate(239.04 295.44)"/><circle class="cls-7" cx="899.55" cy="942.77" r="4.49"/><path class="cls-7" d="M660.51,652a4.72,4.72,0,1,1,3.33-1.38h0A4.7,4.7,0,0,1,660.51,652Zm0-9a4.27,4.27,0,1,0,3,1.25A4.24,4.24,0,0,0,660.51,643.06Z" transform="translate(239.04 295.44)"/><circle class="cls-7" cx="608.32" cy="877.24" r="4.49"/><path class="cls-7" d="M369.28,586.51a4.71,4.71,0,1,1,3.34-1.38h0A4.71,4.71,0,0,1,369.28,586.51Zm0-9a4.26,4.26,0,1,0,3,7.28h0a4.26,4.26,0,0,0,0-6A4.25,4.25,0,0,0,369.28,577.53Z" transform="translate(239.04 295.44)"/><circle class="cls-7" cx="721.17" cy="764.39" r="4.49"/><path class="cls-7" d="M482.13,473.66a4.69,4.69,0,1,1,3.34-1.37h0A4.74,4.74,0,0,1,482.13,473.66Zm0-9a4.26,4.26,0,1,0,3,7.27h0a4.26,4.26,0,0,0,0-6A4.24,4.24,0,0,0,482.13,464.69Z" transform="translate(239.04 295.44)"/><circle class="cls-7" cx="786.7" cy="1055.62" r="4.49"/><path class="cls-7" d="M547.66,764.89a4.72,4.72,0,1,1,3.33-1.38h0A4.69,4.69,0,0,1,547.66,764.89Zm0-9a4.26,4.26,0,1,0,3,7.28h0a4.26,4.26,0,0,0,0-6A4.2,4.2,0,0,0,547.66,755.91Z" transform="translate(239.04 295.44)"/><path class="cls-7" d="M475.86,585.2a17,17,0,1,1,12-5A16.94,16.94,0,0,1,475.86,585.2Zm0-33.51a16.53,16.53,0,1,0,11.69,4.83A16.49,16.49,0,0,0,475.86,551.69Z" transform="translate(239.04 295.44)"/><circle class="cls-10" cx="714.85" cy="863.72" r="18.95"/><path class="cls-7" d="M557.85,667.19a17,17,0,1,1,12-5A16.94,16.94,0,0,1,557.85,667.19Zm0-33.51a16.53,16.53,0,1,0,11.69,4.83A16.49,16.49,0,0,0,557.85,633.68Z" transform="translate(239.04 295.44)"/><circle class="cls-10" cx="796.89" cy="945.65" r="18.87"/><path class="cls-11" d="M569.7,662.06a16.87,16.87,0,0,1-4.19,3.06l-.8-3.1a.77.77,0,0,0-.94-.55l-5.33,1.37a.77.77,0,0,0-.55.94l.82,3.16a16.72,16.72,0,0,1-10-2.66L551,662a.76.76,0,0,0,0-1.08l-3.89-3.9a.77.77,0,0,0-1.09,0l-2.28,2.29a16.8,16.8,0,0,1-2.63-10.44l3.15.91a.77.77,0,0,0,1-.52l1.52-5.29a.78.78,0,0,0-.52-1l-3.08-.88a16.74,16.74,0,0,1,2.84-3.77,16.45,16.45,0,0,1,4.51-3.22l.83,3.23a.78.78,0,0,0,.94.55l5.33-1.38a.76.76,0,0,0,.55-.93l-.82-3.16a16.7,16.7,0,0,1,9.61,2.68l-2.28,2.28a.77.77,0,0,0,0,1.09l3.89,3.89a.77.77,0,0,0,1.09,0l2.28-2.28a16.68,16.68,0,0,1,2.65,10.07l-3.07-.89a.77.77,0,0,0-1,.53L569,656.11a.77.77,0,0,0,.53.95l3.15.91A16.79,16.79,0,0,1,569.7,662.06Z" transform="translate(239.04 295.44)"/><path class="cls-11" d="M487.71,580.07a16.74,16.74,0,0,1-4.2,3.06l-.79-3.1a.77.77,0,0,0-.94-.55l-5.33,1.37a.77.77,0,0,0-.55.94l.82,3.16a16.72,16.72,0,0,1-10-2.66L469,580a.76.76,0,0,0,0-1.08l-3.89-3.9a.77.77,0,0,0-1.09,0l-2.28,2.29a16.8,16.8,0,0,1-2.63-10.44l3.15.91a.77.77,0,0,0,.95-.52l1.52-5.29a.78.78,0,0,0-.52-1l-3.08-.88a16.74,16.74,0,0,1,2.84-3.77,16.45,16.45,0,0,1,4.51-3.22l.83,3.23a.78.78,0,0,0,.94.55l5.33-1.38a.76.76,0,0,0,.55-.93l-.82-3.16a16.7,16.7,0,0,1,9.61,2.68l-2.28,2.28a.77.77,0,0,0,0,1.09l3.89,3.89a.77.77,0,0,0,1.09,0l2.28-2.28a16.68,16.68,0,0,1,2.65,10.07l-3.07-.89a.78.78,0,0,0-1,.53L487,574.12a.77.77,0,0,0,.53,1l3.15.91A16.79,16.79,0,0,1,487.71,580.07Z" transform="translate(239.04 295.44)"/><path class="cls-16" d="M649.39,644.53l-165-165a4.63,4.63,0,0,0-6.52,0L404.42,553a4.61,4.61,0,0,0,0,6.52l165,165a4.63,4.63,0,0,0,6.52,0l73.46-73.47A4.63,4.63,0,0,0,649.39,644.53Zm-83,38.7a4.63,4.63,0,0,1-6.52,0L445.71,569a4.61,4.61,0,0,1,0-6.52l24.45-24.46a4.63,4.63,0,0,1,6.52,0L590.87,652.25a4.61,4.61,0,0,1,0,6.52Z" transform="translate(239.04 295.44)"/><text class="cls-13" transform="translate(742.98 843.07) rotate(45)">best ballads</text><line class="cls-9" x1="744.55" y1="821.09" x2="866.6" y2="943.14"/><line class="cls-9" x1="859.18" y1="951.84" x2="737.3" y2="829.95"/><path class="cls-8" d="M616.29,646.7c-1.77-6.17-1.66-10.83.21-11.73.3-.14,1.8-.74,5.21,2.29q4.9,1,5.14,2.6Q627.24,642.44,616.29,646.7Z" transform="translate(239.04 295.44)"/><path class="cls-8" d="M615.33,653.31c1.5-3.16,3.23-5,4.32-4.72.17,0,1,.35,1.3,2.82,1.11,1.44,1.5,2.41,1.17,2.92Q621.34,655.53,615.33,653.31Z" transform="translate(239.04 295.44)"/><path class="cls-4" d="M628.84,764.75H892.67a8.8,8.8,0,0,1,8.8,8.8V941a19.18,19.18,0,0,1-19.18,19.18H628.84A19.18,19.18,0,0,1,609.66,941v-157a19.18,19.18,0,0,1,19.18-19.18Z" transform="translate(1070.18 13.78) rotate(45)"/><g class="cls-5"><path class="cls-6" d="M787,1012a8.81,8.81,0,0,1-6.27-2.59l-184.8-184.8a8.87,8.87,0,0,1,0-12.54L715.76,692.2a8.88,8.88,0,0,1,12.54,0L913.1,877a8.88,8.88,0,0,1,0,12.54L793.27,1009.37A8.79,8.79,0,0,1,787,1012Z" transform="translate(239.04 295.44)"/><path class="cls-7" d="M722,693a5.44,5.44,0,0,1,3.86,1.59l184.8,184.8a5.48,5.48,0,0,1,0,7.72L790.86,1007a5.47,5.47,0,0,1-7.71,0L598.34,822.15a5.47,5.47,0,0,1,0-7.71L718.17,694.61A5.44,5.44,0,0,1,722,693Zm0-6.82a12.2,12.2,0,0,0-8.68,3.58L593.52,809.61a12.3,12.3,0,0,0,0,17.37l184.8,184.8a12.3,12.3,0,0,0,17.37,0L915.51,892a12.29,12.29,0,0,0,0-17.36L730.71,689.78A12.2,12.2,0,0,0,722,686.2Z" transform="translate(239.04 295.44)"/></g><circle class="cls-7" cx="956.21" cy="1098.72" r="68.99"/><path class="cls-7" d="M717.17,872.46a69.19,69.19,0,1,1,48.94-20.24A69,69,0,0,1,717.17,872.46Zm0-137.91a68.74,68.74,0,1,0,48.62,117.34h0a68.72,68.72,0,0,0-48.62-117.34Z" transform="translate(239.04 295.44)"/><circle class="cls-7" cx="1037.66" cy="1181.25" r="31.16"/><path class="cls-7" d="M798.61,917.19a31.38,31.38,0,1,1,22.2-9.19h0A31.18,31.18,0,0,1,798.61,917.19Zm0-62.3a30.93,30.93,0,1,0,21.87,52.79h0a30.92,30.92,0,0,0-21.87-52.79Z" transform="translate(239.04 295.44)"/><g class="cls-5"><path class="cls-14" d="M782.32,946.16,662,825.84c-7.46-7.47-36.56,16.89-36.56,16.89a4.63,4.63,0,0,0,0,6.52L758.32,982.13a4.61,4.61,0,0,0,6.52,0S790.62,954.46,782.32,946.16Z" transform="translate(239.04 295.44)"/><path class="cls-7" d="M761.58,983.71a4.79,4.79,0,0,1-3.42-1.42L625.28,849.41a4.85,4.85,0,0,1,0-6.84c1.21-1,29.36-24.41,36.89-16.89L782.49,946c8.35,8.36-16.42,35.15-17.48,36.29A4.87,4.87,0,0,1,761.58,983.71ZM658,824.64c-10.44,0-32.15,18.05-32.41,18.27a4.39,4.39,0,0,0,0,6.18L758.48,982a4.39,4.39,0,0,0,6.2,0c.25-.27,25.53-27.6,17.48-35.65L661.84,826A5.22,5.22,0,0,0,658,824.64Z" transform="translate(239.04 295.44)"/></g><circle class="cls-7" cx="884.51" cy="1146.71" r="5.6"/><path class="cls-7" d="M645.47,857.08a5.82,5.82,0,1,1,4.12-1.7h0A5.8,5.8,0,0,1,645.47,857.08Zm0-11.18a5.37,5.37,0,0,0-3.79,9.16,5.37,5.37,0,1,0,3.79-9.16Z" transform="translate(239.04 295.44)"/><circle class="cls-7" cx="999.15" cy="1261.35" r="5.6"/><path class="cls-7" d="M760.11,971.72a5.82,5.82,0,1,1,4.12-1.7h0A5.8,5.8,0,0,1,760.11,971.72Zm0-11.18a5.37,5.37,0,1,0,3.79,1.57A5.34,5.34,0,0,0,760.11,960.54Z" transform="translate(239.04 295.44)"/><circle class="cls-7" cx="994.16" cy="1240.53" r="5.6"/><path class="cls-7" d="M755.12,950.91a5.82,5.82,0,1,1,0-11.64,5.78,5.78,0,0,1,4.12,1.7,5.82,5.82,0,0,1-4.12,9.94Zm0-11.19a5.37,5.37,0,0,0-3.79,9.17,5.37,5.37,0,1,0,3.79-9.17Z" transform="translate(239.04 295.44)"/><circle class="cls-7" cx="908.87" cy="1155.24" r="5.6"/><path class="cls-7" d="M669.83,865.61a5.76,5.76,0,0,1-4.12-1.7,5.82,5.82,0,1,1,8.23,0h0A5.76,5.76,0,0,1,669.83,865.61Zm0-11.18a5.37,5.37,0,1,0,3.79,1.57A5.34,5.34,0,0,0,669.83,854.43Z" transform="translate(239.04 295.44)"/><circle class="cls-7" cx="1140.31" cy="1178.37" r="4.49"/><path class="cls-7" d="M901.27,887.64a4.72,4.72,0,1,1,3.34-1.38h0A4.71,4.71,0,0,1,901.27,887.64Zm0-9a4.27,4.27,0,1,0,3,1.25A4.28,4.28,0,0,0,901.27,878.66Z" transform="translate(239.04 295.44)"/><circle class="cls-7" cx="849.08" cy="1112.84" r="4.49"/><path class="cls-7" d="M610,822.11a4.71,4.71,0,1,1,3.34-1.38h0A4.71,4.71,0,0,1,610,822.11Zm0-9a4.26,4.26,0,1,0,3,7.27h0a4.26,4.26,0,0,0-3-7.27Z" transform="translate(239.04 295.44)"/><circle class="cls-7" cx="961.93" cy="999.99" r="4.49"/><path class="cls-7" d="M722.89,709.27a4.71,4.71,0,1,1,3.34-1.38h0A4.71,4.71,0,0,1,722.89,709.27Zm0-9a4.26,4.26,0,1,0,3,7.27h0a4.26,4.26,0,0,0-3-7.27Z" transform="translate(239.04 295.44)"/><circle class="cls-7" cx="1027.46" cy="1291.22" r="4.49"/><path class="cls-7" d="M788.42,1000.49a4.72,4.72,0,1,1,3.34-1.38h0A4.71,4.71,0,0,1,788.42,1000.49Zm0-9a4.2,4.2,0,0,0-3,1.25,4.26,4.26,0,1,0,6,6h0a4.27,4.27,0,0,0-3-7.28Z" transform="translate(239.04 295.44)"/><path class="cls-7" d="M716.62,820.8a17,17,0,1,1,12-5A16.94,16.94,0,0,1,716.62,820.8Zm0-33.51a16.53,16.53,0,1,0,11.7,4.84A16.48,16.48,0,0,0,716.62,787.29Z" transform="translate(239.04 295.44)"/><circle class="cls-10" cx="955.61" cy="1099.32" r="18.95"/><path class="cls-7" d="M798.61,902.79a17,17,0,1,1,12-5A16.94,16.94,0,0,1,798.61,902.79Zm0-33.51a16.53,16.53,0,1,0,11.69,4.84A16.48,16.48,0,0,0,798.62,869.28Z" transform="translate(239.04 295.44)"/><circle class="cls-10" cx="1037.66" cy="1181.25" r="18.87"/><path class="cls-11" d="M810.47,897.66a16.85,16.85,0,0,1-4.2,3.06l-.8-3.1a.76.76,0,0,0-.93-.55l-5.33,1.37a.79.79,0,0,0-.56.94l.82,3.16a16.73,16.73,0,0,1-10-2.65l2.28-2.29a.76.76,0,0,0,0-1.08l-3.9-3.9a.78.78,0,0,0-1.08,0l-2.28,2.29a16.73,16.73,0,0,1-2.63-10.44l3.14.91a.77.77,0,0,0,1-.52l1.52-5.29a.76.76,0,0,0-.52-1l-3.08-.89a17,17,0,0,1,2.84-3.77,16.6,16.6,0,0,1,4.51-3.22l.83,3.23a.79.79,0,0,0,.94.55l5.33-1.38a.76.76,0,0,0,.55-.93l-.81-3.15a16.59,16.59,0,0,1,9.6,2.67L805.43,874a.77.77,0,0,0,0,1.09l3.89,3.89a.77.77,0,0,0,1.09,0l2.28-2.28a16.68,16.68,0,0,1,2.66,10.07l-3.08-.88a.76.76,0,0,0-.95.52l-1.53,5.29a.77.77,0,0,0,.53.95l3.15.91A17,17,0,0,1,810.47,897.66Z" transform="translate(239.04 295.44)"/><path class="cls-11" d="M728.48,815.67a16.85,16.85,0,0,1-4.2,3.06l-.8-3.1a.76.76,0,0,0-.93-.55l-5.33,1.37a.79.79,0,0,0-.56.94l.82,3.16a16.73,16.73,0,0,1-10-2.65l2.28-2.29a.76.76,0,0,0,0-1.08l-3.9-3.9a.78.78,0,0,0-1.08,0l-2.28,2.29a16.73,16.73,0,0,1-2.63-10.44l3.14.91a.77.77,0,0,0,1-.52l1.52-5.29a.76.76,0,0,0-.52-1l-3.08-.89a17,17,0,0,1,2.84-3.77,16.6,16.6,0,0,1,4.51-3.22l.83,3.23a.79.79,0,0,0,.94.55l5.33-1.38a.76.76,0,0,0,.55-.93l-.81-3.15a16.59,16.59,0,0,1,9.6,2.67L723.44,792a.77.77,0,0,0,0,1.09l3.89,3.89a.77.77,0,0,0,1.09,0l2.28-2.28a16.75,16.75,0,0,1,2.66,10.07l-3.08-.88a.76.76,0,0,0-.95.52l-1.53,5.29a.77.77,0,0,0,.53.95l3.15.91A17,17,0,0,1,728.48,815.67Z" transform="translate(239.04 295.44)"/><path class="cls-16" d="M890.15,880.13l-165-165a4.61,4.61,0,0,0-6.52,0l-73.47,73.46a4.63,4.63,0,0,0,0,6.52l165,165a4.63,4.63,0,0,0,6.52,0l73.46-73.47A4.61,4.61,0,0,0,890.15,880.13Zm-83,38.7a4.63,4.63,0,0,1-6.52,0L686.47,804.64a4.63,4.63,0,0,1,0-6.52l24.45-24.46a4.63,4.63,0,0,1,6.52,0l114.2,114.19a4.63,4.63,0,0,1,0,6.52Z" transform="translate(239.04 295.44)"/><text class="cls-13" transform="translate(983.75 1078.67) rotate(45)">best ballads</text><line class="cls-9" x1="985.31" y1="1056.69" x2="1107.36" y2="1178.74"/><line class="cls-9" x1="1099.94" y1="1187.44" x2="978.06" y2="1065.55"/><path class="cls-8" d="M857.06,882.3c-1.78-6.17-1.67-10.83.2-11.72.3-.15,1.8-.74,5.22,2.28q4.89,1,5.14,2.61Q868,878,857.06,882.3Z" transform="translate(239.04 295.44)"/><path class="cls-8" d="M856.09,888.92c1.5-3.17,3.23-5,4.32-4.73.18,0,1,.35,1.31,2.82,1.1,1.44,1.49,2.42,1.16,2.92C862.37,890.73,860.1,890.39,856.09,888.92Z" transform="translate(239.04 295.44)"/><path class="cls-4" d="M518,976.16H781.79a8.8,8.8,0,0,1,8.8,8.8v167.41a19.18,19.18,0,0,1-19.18,19.18H518a19.18,19.18,0,0,1-19.18-19.18v-157A19.18,19.18,0,0,1,518,976.16Z" transform="translate(1187.19 154.11) rotate(45)"/><g class="cls-5"><path class="cls-6" d="M676.12,1223.37a8.81,8.81,0,0,1-6.27-2.59L485.05,1036a8.87,8.87,0,0,1,0-12.54L604.88,903.61a8.88,8.88,0,0,1,12.54,0l184.8,184.8a8.88,8.88,0,0,1,0,12.54L682.39,1220.78A8.81,8.81,0,0,1,676.12,1223.37Z" transform="translate(239.04 295.44)"/><path class="cls-7" d="M611.15,904.43A5.46,5.46,0,0,1,615,906l184.8,184.8a5.48,5.48,0,0,1,0,7.72L680,1218.37a5.48,5.48,0,0,1-7.72,0l-184.8-184.8a5.48,5.48,0,0,1,0-7.72L607.29,906a5.44,5.44,0,0,1,3.86-1.59Zm0-6.82a12.15,12.15,0,0,0-8.68,3.59L482.64,1021a12.29,12.29,0,0,0,0,17.36l184.8,184.8a12.29,12.29,0,0,0,17.36,0l119.83-119.83a12.29,12.29,0,0,0,0-17.36L619.83,901.2a12.18,12.18,0,0,0-8.68-3.59Z" transform="translate(239.04 295.44)"/></g><circle class="cls-7" cx="845.33" cy="1310.13" r="68.99"/><path class="cls-7" d="M606.28,1083.87a69.19,69.19,0,1,1,49-20.24A69,69,0,0,1,606.28,1083.87Zm0-137.91a68.75,68.75,0,1,0,48.63,117.35h0A68.73,68.73,0,0,0,606.28,946Z" transform="translate(239.04 295.44)"/><circle class="cls-7" cx="926.77" cy="1392.66" r="31.16"/><path class="cls-7" d="M687.73,1128.61a31.39,31.39,0,1,1,22.2-9.2h0A31.19,31.19,0,0,1,687.73,1128.61Zm0-62.31a30.93,30.93,0,1,0,21.87,52.79h0a30.92,30.92,0,0,0-21.87-52.79Z" transform="translate(239.04 295.44)"/><g class="cls-5"><path class="cls-14" d="M671.44,1157.58,551.12,1037.26c-7.47-7.47-36.56,16.88-36.56,16.88a4.61,4.61,0,0,0,0,6.52l132.88,132.89a4.63,4.63,0,0,0,6.52,0S679.74,1165.87,671.44,1157.58Z" transform="translate(239.04 295.44)"/><path class="cls-7" d="M650.7,1195.12a4.82,4.82,0,0,1-3.42-1.41L514.4,1060.82a4.83,4.83,0,0,1,0-6.84c1.21-1,29.36-24.41,36.88-16.89L671.6,1157.41c8.36,8.36-16.42,35.15-17.48,36.29A4.79,4.79,0,0,1,650.7,1195.12ZM547.11,1036.05c-10.45,0-32.16,18.06-32.41,18.27a4.39,4.39,0,0,0,0,6.18L647.6,1193.38a4.39,4.39,0,0,0,6.2,0c.25-.26,25.53-27.6,17.48-35.64L551,1037.42A5.19,5.19,0,0,0,547.11,1036.05Z" transform="translate(239.04 295.44)"/></g><circle class="cls-7" cx="773.63" cy="1358.12" r="5.6"/><path class="cls-7" d="M534.59,1068.5a5.82,5.82,0,1,1,4.12-1.7h0A5.84,5.84,0,0,1,534.59,1068.5Zm0-11.19a5.37,5.37,0,1,0,3.79,1.57A5.39,5.39,0,0,0,534.59,1057.31Z" transform="translate(239.04 295.44)"/><circle class="cls-7" cx="888.27" cy="1472.76" r="5.6"/><path class="cls-7" d="M649.23,1183.13a5.82,5.82,0,1,1,4.11-1.7h0A5.76,5.76,0,0,1,649.23,1183.13Zm0-11.18a5.37,5.37,0,1,0,3.79,1.57A5.34,5.34,0,0,0,649.23,1172Z" transform="translate(239.04 295.44)"/><circle class="cls-7" cx="883.28" cy="1451.95" r="5.6"/><path class="cls-7" d="M644.24,1162.32a5.82,5.82,0,1,1,4.12-1.7A5.8,5.8,0,0,1,644.24,1162.32Zm0-11.18a5.36,5.36,0,0,0-3.79,9.16,5.37,5.37,0,0,0,7.58,0,5.37,5.37,0,0,0-3.79-9.16Z" transform="translate(239.04 295.44)"/><circle class="cls-7" cx="797.98" cy="1366.65" r="5.6"/><path class="cls-7" d="M558.94,1077a5.83,5.83,0,1,1,4.12-1.71h0A5.81,5.81,0,0,1,558.94,1077Zm0-11.19a5.37,5.37,0,0,0-3.79,9.16,5.37,5.37,0,1,0,3.79-9.16Z" transform="translate(239.04 295.44)"/><circle class="cls-7" cx="1029.43" cy="1389.78" r="4.49"/><path class="cls-7" d="M790.39,1099.06a4.72,4.72,0,1,1,3.33-1.38h0A4.69,4.69,0,0,1,790.39,1099.06Zm0-9a4.27,4.27,0,1,0,3,1.25A4.28,4.28,0,0,0,790.39,1090.07Z" transform="translate(239.04 295.44)"/><circle class="cls-7" cx="738.2" cy="1324.25" r="4.49"/><path class="cls-7" d="M499.16,1033.53a4.71,4.71,0,1,1,3.34-1.38h0A4.71,4.71,0,0,1,499.16,1033.53Zm0-9a4.26,4.26,0,1,0,3,7.28h0a4.26,4.26,0,0,0-3-7.28Z" transform="translate(239.04 295.44)"/><circle class="cls-7" cx="851.05" cy="1211.4" r="4.49"/><path class="cls-7" d="M612,920.68a4.71,4.71,0,1,1,3.34-1.38h0A4.71,4.71,0,0,1,612,920.68Zm0-9a4.23,4.23,0,0,0-3,1.25,4.26,4.26,0,0,0,6,6h0a4.27,4.27,0,0,0-3-7.28Z" transform="translate(239.04 295.44)"/><circle class="cls-7" cx="916.58" cy="1502.63" r="4.49"/><path class="cls-7" d="M677.54,1211.91a4.72,4.72,0,1,1,3.34-1.38h0A4.71,4.71,0,0,1,677.54,1211.91Zm0-9a4.26,4.26,0,1,0,3,7.28h0a4.27,4.27,0,0,0-3-7.28Z" transform="translate(239.04 295.44)"/><path class="cls-7" d="M605.74,1032.21a17,17,0,1,1,12-5A16.94,16.94,0,0,1,605.74,1032.21Zm0-33.51a16.53,16.53,0,1,0,11.69,4.84A16.46,16.46,0,0,0,605.74,998.7Z" transform="translate(239.04 295.44)"/><circle class="cls-10" cx="844.73" cy="1310.73" r="18.95"/><path class="cls-7" d="M687.73,1114.2a17,17,0,1,1,12-5A16.94,16.94,0,0,1,687.73,1114.2Zm0-33.51a16.53,16.53,0,1,0,11.69,4.84A16.48,16.48,0,0,0,687.73,1080.69Z" transform="translate(239.04 295.44)"/><circle class="cls-10" cx="926.77" cy="1392.66" r="18.87"/><path class="cls-11" d="M699.58,1109.07a16.38,16.38,0,0,1-4.19,3.06l-.8-3.1a.78.78,0,0,0-.94-.55l-5.33,1.38a.77.77,0,0,0-.55.93l.82,3.17a16.79,16.79,0,0,1-10-2.66l2.29-2.28a.79.79,0,0,0,0-1.09L677,1104a.76.76,0,0,0-1.08,0l-2.29,2.28a16.77,16.77,0,0,1-2.63-10.43l3.15.9a.76.76,0,0,0,1-.52l1.52-5.29a.76.76,0,0,0-.52-1l-3.08-.89a17.28,17.28,0,0,1,2.84-3.77,16.66,16.66,0,0,1,4.51-3.22l.83,3.23a.77.77,0,0,0,.94.55l5.33-1.37a.77.77,0,0,0,.55-.94l-.81-3.15a16.76,16.76,0,0,1,9.6,2.67l-2.28,2.28a.77.77,0,0,0,0,1.09l3.89,3.89a.77.77,0,0,0,1.09,0l2.28-2.28a16.71,16.71,0,0,1,2.65,10.08l-3.07-.89a.76.76,0,0,0-.95.53l-1.53,5.28a.77.77,0,0,0,.53,1l3.15.91A16.79,16.79,0,0,1,699.58,1109.07Z" transform="translate(239.04 295.44)"/><path class="cls-11" d="M617.59,1027.08a16.38,16.38,0,0,1-4.19,3.06l-.8-3.1a.78.78,0,0,0-.94-.55l-5.33,1.38a.77.77,0,0,0-.55.93l.82,3.16a16.71,16.71,0,0,1-10-2.65l2.29-2.28a.79.79,0,0,0,0-1.09l-3.9-3.89a.76.76,0,0,0-1.08,0l-2.29,2.28A16.77,16.77,0,0,1,589,1013.9l3.15.9a.76.76,0,0,0,1-.52l1.52-5.29a.76.76,0,0,0-.52-1l-3.08-.89a17.28,17.28,0,0,1,2.84-3.77,16.66,16.66,0,0,1,4.51-3.22l.83,3.23a.77.77,0,0,0,.94.55l5.33-1.37a.77.77,0,0,0,.55-.94l-.81-3.15a16.68,16.68,0,0,1,9.6,2.67l-2.28,2.28a.77.77,0,0,0,0,1.09l3.89,3.89a.77.77,0,0,0,1.09,0l2.28-2.28a16.71,16.71,0,0,1,2.65,10.08l-3.07-.89a.76.76,0,0,0-.95.52l-1.53,5.29a.77.77,0,0,0,.53,1l3.15.91A16.79,16.79,0,0,1,617.59,1027.08Z" transform="translate(239.04 295.44)"/><path class="cls-16" d="M779.27,1091.55l-165-165a4.63,4.63,0,0,0-6.52,0L534.3,1000a4.63,4.63,0,0,0,0,6.52l165,165a4.62,4.62,0,0,0,6.52,0l73.46-73.46A4.61,4.61,0,0,0,779.27,1091.55Zm-83,38.69a4.63,4.63,0,0,1-6.52,0L575.59,1016.05a4.61,4.61,0,0,1,0-6.52L600,985.07a4.63,4.63,0,0,1,6.52,0l114.19,114.2a4.61,4.61,0,0,1,0,6.52Z" transform="translate(239.04 295.44)"/><text class="cls-13" transform="translate(872.86 1290.08) rotate(45)">best ballads</text><line class="cls-9" x1="874.43" y1="1268.1" x2="996.48" y2="1390.16"/><line class="cls-9" x1="989.06" y1="1398.85" x2="867.18" y2="1276.96"/><path class="cls-8" d="M746.17,1093.71c-1.77-6.17-1.66-10.83.21-11.72.3-.15,1.8-.74,5.21,2.28,3.27.64,5,1.51,5.15,2.61Q757.12,1089.44,746.17,1093.71Z" transform="translate(239.04 295.44)"/><path class="cls-8" d="M745.21,1100.33c1.5-3.17,3.23-5,4.32-4.72.17.05,1,.34,1.31,2.81,1.1,1.44,1.49,2.42,1.16,2.93Q751.22,1102.54,745.21,1100.33Z" transform="translate(239.04 295.44)"/><path class="cls-4" d="M278.19,738H542a8.8,8.8,0,0,1,8.8,8.8V914.21a19.18,19.18,0,0,1-19.18,19.18H278.19A19.18,19.18,0,0,1,259,914.21v-157A19.18,19.18,0,0,1,278.19,738Z" transform="translate(948.57 253.9) rotate(45)"/><g class="cls-5"><path class="cls-6" d="M436.35,985.22a8.81,8.81,0,0,1-6.27-2.59l-184.8-184.8a8.87,8.87,0,0,1,0-12.54L365.11,665.46a8.88,8.88,0,0,1,12.54,0l184.8,184.8a8.88,8.88,0,0,1,0,12.54L442.62,982.63A8.79,8.79,0,0,1,436.35,985.22Z" transform="translate(239.04 295.44)"/><path class="cls-7" d="M371.38,666.28a5.46,5.46,0,0,1,3.86,1.59L560,852.67a5.48,5.48,0,0,1,0,7.72L440.21,980.22a5.48,5.48,0,0,1-7.72,0L247.69,795.41a5.47,5.47,0,0,1,0-7.71L367.52,667.87a5.44,5.44,0,0,1,3.86-1.59Zm0-6.82a12.15,12.15,0,0,0-8.68,3.59L242.87,782.87a12.3,12.3,0,0,0,0,17.37L427.67,985A12.29,12.29,0,0,0,445,985L564.86,865.21a12.29,12.29,0,0,0,0-17.36l-184.8-184.8a12.18,12.18,0,0,0-8.68-3.59Z" transform="translate(239.04 295.44)"/></g><circle class="cls-7" cx="605.56" cy="1071.98" r="68.99"/><path class="cls-7" d="M366.52,845.72a69.19,69.19,0,1,1,48.94-20.24A69,69,0,0,1,366.52,845.72Zm0-137.91a68.73,68.73,0,1,0,48.62,20.11A68.51,68.51,0,0,0,366.52,707.81Z" transform="translate(239.04 295.44)"/><circle class="cls-7" cx="687.01" cy="1154.51" r="31.16"/><path class="cls-7" d="M448,890.44a31.38,31.38,0,1,1,22.2-9.18A31.29,31.29,0,0,1,448,890.44Zm0-62.3a30.93,30.93,0,1,0,21.88,9.06A30.69,30.69,0,0,0,448,828.14Z" transform="translate(239.04 295.44)"/><g class="cls-5"><path class="cls-14" d="M431.67,919.42,311.35,799.1c-7.47-7.46-36.56,16.89-36.56,16.89a4.61,4.61,0,0,0,0,6.52L407.67,955.39a4.61,4.61,0,0,0,6.52,0S440,927.72,431.67,919.42Z" transform="translate(239.04 295.44)"/><path class="cls-7" d="M410.93,957a4.82,4.82,0,0,1-3.42-1.41L274.63,822.67a4.83,4.83,0,0,1,0-6.84c1.21-1,29.36-24.41,36.88-16.89L431.83,919.26c8.36,8.36-16.42,35.15-17.47,36.29A4.83,4.83,0,0,1,410.93,957ZM307.34,797.9c-10.45,0-32.16,18.06-32.41,18.27a4.39,4.39,0,0,0,0,6.18L407.83,955.23a4.39,4.39,0,0,0,6.2,0c.25-.27,25.53-27.6,17.48-35.65L311.19,799.26A5.22,5.22,0,0,0,307.34,797.9Z" transform="translate(239.04 295.44)"/></g><circle class="cls-7" cx="533.86" cy="1119.97" r="5.6"/><path class="cls-7" d="M294.82,830.35a5.83,5.83,0,1,1,4.12-1.71A5.81,5.81,0,0,1,294.82,830.35Zm0-11.19a5.36,5.36,0,1,0,3.8,1.57A5.36,5.36,0,0,0,294.82,819.16Z" transform="translate(239.04 295.44)"/><circle class="cls-7" cx="648.5" cy="1234.61" r="5.6"/><path class="cls-7" d="M409.46,945a5.84,5.84,0,1,1,4.11-1.71h0A5.78,5.78,0,0,1,409.46,945Zm0-11.19a5.37,5.37,0,1,0,3.79,9.16h0a5.37,5.37,0,0,0-3.79-9.16Z" transform="translate(239.04 295.44)"/><circle class="cls-7" cx="643.51" cy="1213.79" r="5.6"/><path class="cls-7" d="M404.47,924.17a5.82,5.82,0,1,1,4.12-1.7h0A5.84,5.84,0,0,1,404.47,924.17Zm0-11.18a5.37,5.37,0,1,0,3.8,1.57A5.36,5.36,0,0,0,404.47,913Z" transform="translate(239.04 295.44)"/><circle class="cls-7" cx="558.22" cy="1128.5" r="5.6"/><path class="cls-7" d="M319.17,838.88a5.84,5.84,0,1,1,4.12-1.71h0A5.79,5.79,0,0,1,319.17,838.88Zm0-11.19a5.37,5.37,0,1,0,3.8,9.16h0a5.37,5.37,0,0,0-3.8-9.16Z" transform="translate(239.04 295.44)"/><circle class="cls-7" cx="789.66" cy="1151.63" r="4.49"/><path class="cls-7" d="M550.62,860.91a4.72,4.72,0,0,1-3.34-8.06,4.72,4.72,0,1,1,6.68,6.67A4.68,4.68,0,0,1,550.62,860.91Zm0-9a4.27,4.27,0,1,0,0,8.53,4.2,4.2,0,0,0,3-1.25,4.27,4.27,0,0,0-3-7.28Z" transform="translate(239.04 295.44)"/><circle class="cls-7" cx="498.43" cy="1086.1" r="4.49"/><path class="cls-7" d="M259.39,795.38a4.72,4.72,0,1,1,3.34-1.38h0A4.71,4.71,0,0,1,259.39,795.38Zm0-9a4.27,4.27,0,1,0,3,1.25A4.24,4.24,0,0,0,259.39,786.39Z" transform="translate(239.04 295.44)"/><circle class="cls-7" cx="611.28" cy="973.25" r="4.49"/><path class="cls-7" d="M372.24,682.53a4.72,4.72,0,1,1,3.34-1.38h0A4.71,4.71,0,0,1,372.24,682.53Zm0-9a4.27,4.27,0,1,0,3,7.29h0a4.27,4.27,0,0,0-3-7.29Z" transform="translate(239.04 295.44)"/><circle class="cls-7" cx="676.81" cy="1264.48" r="4.49"/><path class="cls-7" d="M437.77,973.76a4.73,4.73,0,1,1,3.34-1.39A4.71,4.71,0,0,1,437.77,973.76Zm0-9a4.27,4.27,0,0,0-3,7.28,4.26,4.26,0,1,0,3-7.28Z" transform="translate(239.04 295.44)"/><path class="cls-7" d="M366,794.07a17,17,0,1,1,12-5h0A16.89,16.89,0,0,1,366,794.07Zm0-33.53a16.54,16.54,0,1,0,11.69,28.23h0A16.54,16.54,0,0,0,366,760.54Z" transform="translate(239.04 295.44)"/><circle class="cls-10" cx="604.96" cy="1072.58" r="18.95"/><path class="cls-7" d="M448,876.05a17,17,0,1,1,12-5h0A17,17,0,0,1,448,876.05Zm0-33.51a16.53,16.53,0,1,0,11.69,4.84A16.48,16.48,0,0,0,448,842.54Z" transform="translate(239.04 295.44)"/><circle class="cls-10" cx="687.01" cy="1154.51" r="18.87"/><path class="cls-11" d="M459.81,870.92a16.62,16.62,0,0,1-4.19,3.06l-.8-3.1a.77.77,0,0,0-.94-.55l-5.33,1.37a.79.79,0,0,0-.55.94l.82,3.16a16.78,16.78,0,0,1-10-2.65l2.29-2.29a.78.78,0,0,0,0-1.08l-3.9-3.89a.76.76,0,0,0-1.08,0l-2.29,2.28a16.79,16.79,0,0,1-2.63-10.43l3.15.9a.77.77,0,0,0,1-.52l1.52-5.29a.76.76,0,0,0-.52-1l-3.08-.89a17,17,0,0,1,2.84-3.77,16.45,16.45,0,0,1,4.51-3.22l.83,3.23a.77.77,0,0,0,.94.55l5.33-1.38a.76.76,0,0,0,.55-.93l-.81-3.15a16.59,16.59,0,0,1,9.6,2.67l-2.28,2.28a.77.77,0,0,0,0,1.09l3.89,3.89a.77.77,0,0,0,1.09,0L462,850A16.75,16.75,0,0,1,464.7,860l-3.08-.88a.76.76,0,0,0-.95.52L459.14,865a.77.77,0,0,0,.53.95l3.15.91A16.79,16.79,0,0,1,459.81,870.92Z" transform="translate(239.04 295.44)"/><path class="cls-11" d="M377.82,788.93a16.62,16.62,0,0,1-4.19,3.06l-.8-3.1a.77.77,0,0,0-.94-.55l-5.33,1.37a.79.79,0,0,0-.55.94l.82,3.16a16.78,16.78,0,0,1-10-2.65l2.29-2.29a.78.78,0,0,0,0-1.08l-3.9-3.9a.78.78,0,0,0-1.08,0l-2.29,2.29a16.79,16.79,0,0,1-2.63-10.43l3.15.9a.77.77,0,0,0,.95-.52l1.52-5.29a.76.76,0,0,0-.52-1l-3.08-.89a17,17,0,0,1,2.84-3.77,16.45,16.45,0,0,1,4.51-3.22l.83,3.23a.77.77,0,0,0,.94.55l5.33-1.38a.76.76,0,0,0,.55-.93l-.81-3.15a16.59,16.59,0,0,1,9.6,2.67l-2.28,2.28a.77.77,0,0,0,0,1.09l3.89,3.89a.77.77,0,0,0,1.09,0l2.28-2.28a16.75,16.75,0,0,1,2.66,10.07l-3.08-.88a.76.76,0,0,0-.95.52L377.15,783a.77.77,0,0,0,.53.95l3.15.91A16.79,16.79,0,0,1,377.82,788.93Z" transform="translate(239.04 295.44)"/><path class="cls-15" d="M539.5,853.39l-165-165a4.6,4.6,0,0,0-6.51,0l-73.47,73.46a4.63,4.63,0,0,0,0,6.52l165,165a4.63,4.63,0,0,0,6.52,0l73.46-73.47A4.61,4.61,0,0,0,539.5,853.39Zm-83,38.7a4.63,4.63,0,0,1-6.52,0L335.82,777.9a4.63,4.63,0,0,1,0-6.52l24.45-24.46a4.63,4.63,0,0,1,6.52,0L481,861.12a4.6,4.6,0,0,1,0,6.51Z" transform="translate(239.04 295.44)"/><text class="cls-13" transform="translate(633.09 1051.93) rotate(45)">best ballads</text><line class="cls-9" x1="634.66" y1="1029.95" x2="756.71" y2="1152"/><line class="cls-9" x1="749.29" y1="1160.7" x2="627.41" y2="1038.81"/><path class="cls-8" d="M506.4,855.56c-1.77-6.17-1.66-10.83.21-11.72.3-.15,1.8-.74,5.21,2.28,3.27.64,5,1.51,5.15,2.61Q517.35,851.3,506.4,855.56Z" transform="translate(239.04 295.44)"/><path class="cls-8" d="M505.44,862.18c1.5-3.17,3.23-5,4.32-4.73.17,0,1,.35,1.31,2.82,1.1,1.44,1.49,2.42,1.16,2.92Q511.45,864.39,505.44,862.18Z" transform="translate(239.04 295.44)"/><path class="cls-4" d="M-48.59,753.76H215.23a8.8,8.8,0,0,1,8.8,8.8V930a19.18,19.18,0,0,1-19.18,19.18H-48.59A19.18,19.18,0,0,1-67.78,930v-157A19.18,19.18,0,0,1-48.59,753.76Z" transform="translate(863.99 489.58) rotate(45)"/><g class="cls-5"><path class="cls-6" d="M109.57,1001a8.81,8.81,0,0,1-6.27-2.59L-81.51,813.57a8.89,8.89,0,0,1,0-12.54L38.32,681.2a8.88,8.88,0,0,1,12.54,0L235.67,866a8.88,8.88,0,0,1,0,12.54L115.84,998.38A8.81,8.81,0,0,1,109.57,1001Z" transform="translate(239.04 295.44)"/><path class="cls-7" d="M44.59,682a5.44,5.44,0,0,1,3.86,1.59L233.26,868.42a5.48,5.48,0,0,1,0,7.72L113.43,996a5.48,5.48,0,0,1-7.72,0L-79.09,811.16a5.46,5.46,0,0,1,0-7.72L40.73,683.61A5.46,5.46,0,0,1,44.59,682Zm0-6.82a12.23,12.23,0,0,0-8.68,3.59L-83.92,798.62a12.23,12.23,0,0,0-3.59,8.68A12.19,12.19,0,0,0-83.92,816l184.81,184.81a12.29,12.29,0,0,0,17.36,0L238.08,881a12.29,12.29,0,0,0,0-17.36L53.27,678.79a12.19,12.19,0,0,0-8.68-3.59Z" transform="translate(239.04 295.44)"/></g><circle class="cls-7" cx="278.77" cy="1087.72" r="68.99"/><path class="cls-7" d="M39.73,861.5a69.22,69.22,0,1,1,48.94-20.28l-.16-.16.16.16A68.73,68.73,0,0,1,39.73,861.5Zm0-138A68.75,68.75,0,1,0,88.35,840.9h0A68.73,68.73,0,0,0,39.73,723.55Z" transform="translate(239.04 295.44)"/><circle class="cls-7" cx="360.22" cy="1170.26" r="31.16"/><path class="cls-7" d="M121.18,906.19A31.38,31.38,0,1,1,143.37,897h0A31.28,31.28,0,0,1,121.18,906.19Zm0-62.29a30.92,30.92,0,1,0,21.87,9A30.83,30.83,0,0,0,121.18,843.9Z" transform="translate(239.04 295.44)"/><g class="cls-5"><path class="cls-14" d="M104.89,935.17-15.43,814.85C-22.9,807.38-52,831.74-52,831.74a4.63,4.63,0,0,0,0,6.52L80.89,971.14a4.62,4.62,0,0,0,6.51,0S113.18,943.46,104.89,935.17Z" transform="translate(239.04 295.44)"/><path class="cls-7" d="M84.14,972.71a4.84,4.84,0,0,1-3.42-1.41L-52.16,838.42A4.81,4.81,0,0,1-53.57,835a4.79,4.79,0,0,1,1.41-3.42c1.21-1,29.35-24.42,36.89-16.89L105.05,935c8.35,8.35-16.42,35.15-17.48,36.29A4.86,4.86,0,0,1,84.14,972.71ZM-19.45,813.65c-10.44,0-32.15,18.05-32.4,18.26A4.34,4.34,0,0,0-53.11,835a4.38,4.38,0,0,0,1.27,3.1L81.05,971a4.38,4.38,0,0,0,6.19,0c.25-.27,25.53-27.6,17.49-35.65L-15.59,815A5.25,5.25,0,0,0-19.45,813.65Z" transform="translate(239.04 295.44)"/></g><circle class="cls-7" cx="207.08" cy="1135.72" r="5.6"/><path class="cls-7" d="M-32,846.09a5.78,5.78,0,0,1-4.12-1.7,5.79,5.79,0,0,1-1.71-4.12,5.78,5.78,0,0,1,1.71-4.11A5.79,5.79,0,0,1-32,834.45a5.78,5.78,0,0,1,4.11,1.71,5.78,5.78,0,0,1,1.71,4.11,5.79,5.79,0,0,1-1.71,4.12h0A5.77,5.77,0,0,1-32,846.09Zm0-11.19a5.31,5.31,0,0,0-3.8,1.58,5.33,5.33,0,0,0-1.57,3.79,5.36,5.36,0,0,0,1.57,3.8,5.34,5.34,0,0,0,3.8,1.57,5.33,5.33,0,0,0,3.79-1.57h0a5.32,5.32,0,0,0,1.57-3.8,5.29,5.29,0,0,0-1.57-3.79A5.3,5.3,0,0,0-32,834.9Z" transform="translate(239.04 295.44)"/><circle class="cls-7" cx="321.71" cy="1250.35" r="5.6"/><path class="cls-7" d="M82.67,960.73a5.82,5.82,0,1,1,4.12-1.7h0A5.84,5.84,0,0,1,82.67,960.73Zm0-11.18a5.36,5.36,0,1,0,3.8,1.56A5.35,5.35,0,0,0,82.67,949.55Z" transform="translate(239.04 295.44)"/><circle class="cls-7" cx="316.73" cy="1229.54" r="5.6"/><path class="cls-7" d="M77.69,939.92a5.82,5.82,0,1,1,4.11-1.7h0A5.81,5.81,0,0,1,77.69,939.92Zm0-11.19a5.37,5.37,0,1,0,3.79,9.16h0a5.37,5.37,0,0,0-3.79-9.16Z" transform="translate(239.04 295.44)"/><circle class="cls-7" cx="231.43" cy="1144.24" r="5.6"/><path class="cls-7" d="M-7.61,854.62a5.84,5.84,0,0,1-4.12-1.7,5.78,5.78,0,0,1-1.7-4.12,5.79,5.79,0,0,1,1.7-4.12A5.78,5.78,0,0,1-7.61,843a5.79,5.79,0,0,1,4.12,1.7,5.84,5.84,0,0,1,0,8.24A5.84,5.84,0,0,1-7.61,854.62Zm0-11.19a5.34,5.34,0,0,0-3.8,1.58A5.33,5.33,0,0,0-13,848.8a5.37,5.37,0,0,0,1.57,3.8,5.38,5.38,0,0,0,7.59,0,5.36,5.36,0,0,0,0-7.59A5.3,5.3,0,0,0-7.61,843.43Z" transform="translate(239.04 295.44)"/><circle class="cls-7" cx="462.88" cy="1167.38" r="4.49"/><path class="cls-7" d="M223.83,876.65a4.71,4.71,0,1,1,3.34-1.38h0A4.71,4.71,0,0,1,223.83,876.65Zm0-9a4.26,4.26,0,1,0,3,7.28h0a4.27,4.27,0,0,0-3-7.28Z" transform="translate(239.04 295.44)"/><circle class="cls-7" cx="171.65" cy="1101.85" r="4.49"/><path class="cls-7" d="M-67.39,811.12a4.7,4.7,0,0,1-3.34-1.38,4.68,4.68,0,0,1-1.38-3.34,4.67,4.67,0,0,1,1.38-3.33,4.72,4.72,0,0,1,6.67,0,4.72,4.72,0,0,1,0,6.67A4.67,4.67,0,0,1-67.39,811.12Zm0-9a4.27,4.27,0,0,0-3,1.25,4.25,4.25,0,0,0-1.25,3,4.28,4.28,0,0,0,1.25,3,4.24,4.24,0,0,0,3,1.25,4.2,4.2,0,0,0,3-1.25,4.26,4.26,0,0,0,0-6A4.25,4.25,0,0,0-67.39,802.14Z" transform="translate(239.04 295.44)"/><circle class="cls-7" cx="284.5" cy="989" r="4.49"/><path class="cls-7" d="M45.46,698.28a4.73,4.73,0,1,1,3.33-1.39A4.69,4.69,0,0,1,45.46,698.28Zm0-9a4.27,4.27,0,1,0,3,1.25A4.25,4.25,0,0,0,45.46,689.29Z" transform="translate(239.04 295.44)"/><circle class="cls-7" cx="350.03" cy="1280.22" r="4.49"/><path class="cls-7" d="M111,989.5a4.71,4.71,0,1,1,3.34-1.38h0A4.71,4.71,0,0,1,111,989.5Zm0-9a4.21,4.21,0,0,0-3,1.25,4.26,4.26,0,0,0,6,6h0a4.27,4.27,0,0,0-3-7.28Z" transform="translate(239.04 295.44)"/><path class="cls-7" d="M39.19,809.8a17,17,0,1,1,12-5A16.93,16.93,0,0,1,39.19,809.8Zm0-33.5a16.52,16.52,0,1,0,11.69,4.83A16.47,16.47,0,0,0,39.19,776.3Z" transform="translate(239.04 295.44)"/><circle class="cls-10" cx="278.17" cy="1088.32" r="18.95"/><path class="cls-7" d="M121.18,891.8a17,17,0,1,1,12-5h0A16.9,16.9,0,0,1,121.18,891.8Zm0-33.52a16.54,16.54,0,1,0,11.69,28.22h0a16.53,16.53,0,0,0-11.69-28.22Z" transform="translate(239.04 295.44)"/><circle class="cls-10" cx="360.22" cy="1170.26" r="18.87"/><path class="cls-11" d="M133,886.66a16.71,16.71,0,0,1-4.2,3.07l-.79-3.1a.77.77,0,0,0-.94-.55l-5.33,1.37a.76.76,0,0,0-.55.93l.81,3.17a16.69,16.69,0,0,1-10-2.66l2.28-2.28a.77.77,0,0,0,0-1.09l-3.89-3.89a.77.77,0,0,0-1.09,0l-2.28,2.28a16.75,16.75,0,0,1-2.63-10.43l3.14.91a.76.76,0,0,0,1-.53l1.53-5.28a.78.78,0,0,0-.53-1l-3.07-.88a16.5,16.5,0,0,1,2.84-3.78,16.84,16.84,0,0,1,4.5-3.22l.84,3.23a.78.78,0,0,0,.94.56l5.33-1.38a.76.76,0,0,0,.54-.93l-.81-3.16a16.7,16.7,0,0,1,9.61,2.68L128,863a.76.76,0,0,0,0,1.08l3.89,3.9a.77.77,0,0,0,1.09,0l2.28-2.28a16.75,16.75,0,0,1,2.65,10.07l-3.08-.89a.78.78,0,0,0-1,.53l-1.52,5.29a.77.77,0,0,0,.52.95l3.16.91A16.55,16.55,0,0,1,133,886.66Z" transform="translate(239.04 295.44)"/><path class="cls-11" d="M51,804.67a16.71,16.71,0,0,1-4.2,3.07l-.79-3.1a.77.77,0,0,0-.94-.55l-5.33,1.37a.76.76,0,0,0-.55.93l.81,3.17a16.69,16.69,0,0,1-9.95-2.66l2.28-2.28a.77.77,0,0,0,0-1.09l-3.89-3.89a.77.77,0,0,0-1.09,0l-2.28,2.28a16.75,16.75,0,0,1-2.63-10.43l3.14.91a.76.76,0,0,0,.95-.53l1.53-5.28a.78.78,0,0,0-.53-1l-3.07-.88A16.5,16.5,0,0,1,27.34,781a16.84,16.84,0,0,1,4.5-3.22l.84,3.23a.78.78,0,0,0,.94.56L39,780.16a.76.76,0,0,0,.54-.93l-.81-3.16a16.7,16.7,0,0,1,9.61,2.68L46,781a.76.76,0,0,0,0,1.08L49.9,786A.77.77,0,0,0,51,786l2.28-2.29a16.79,16.79,0,0,1,2.65,10.08l-3.08-.89a.78.78,0,0,0-1,.53l-1.52,5.29a.77.77,0,0,0,.52.95l3.16.91A16.55,16.55,0,0,1,51,804.67Z" transform="translate(239.04 295.44)"/><path class="cls-17" d="M212.72,869.14l-165-165a4.63,4.63,0,0,0-6.52,0l-73.46,73.47a4.61,4.61,0,0,0,0,6.52l165,165a4.63,4.63,0,0,0,6.52,0l73.47-73.47A4.63,4.63,0,0,0,212.72,869.14Zm-83,38.7a4.63,4.63,0,0,1-6.52,0L9,793.64a4.63,4.63,0,0,1,0-6.52l24.46-24.45a4.63,4.63,0,0,1,6.52,0L154.2,876.86a4.63,4.63,0,0,1,0,6.52Z" transform="translate(239.04 295.44)"/><text class="cls-13" transform="translate(306.31 1067.67) rotate(45)">best ballads</text><line class="cls-9" x1="307.88" y1="1045.7" x2="429.93" y2="1167.75"/><line class="cls-9" x1="422.51" y1="1176.44" x2="300.62" y2="1054.56"/><path class="cls-8" d="M179.62,871.31c-1.78-6.18-1.66-10.83.21-11.73.3-.14,1.79-.74,5.21,2.29,3.26.64,5,1.5,5.14,2.6Q190.57,867.05,179.62,871.31Z" transform="translate(239.04 295.44)"/><path class="cls-8" d="M178.66,877.92c1.5-3.17,3.23-5,4.32-4.72.17,0,1,.35,1.3,2.82,1.11,1.44,1.5,2.41,1.17,2.92Q184.67,880.14,178.66,877.92Z" transform="translate(239.04 295.44)"/><path class="cls-4" d="M430.31,242.23H694.14a8.8,8.8,0,0,1,8.8,8.8V418.43a19.18,19.18,0,0,1-19.18,19.18H430.31a19.18,19.18,0,0,1-19.18-19.18v-157a19.18,19.18,0,0,1,19.18-19.18Z" transform="translate(642.56 1.12) rotate(45)"/><g class="cls-5"><path class="cls-6" d="M588.47,489.44a8.81,8.81,0,0,1-6.27-2.59L397.4,302.05a8.87,8.87,0,0,1,0-12.54L517.23,169.68a8.88,8.88,0,0,1,12.54,0l184.8,184.8a8.88,8.88,0,0,1,0,12.54L594.74,486.85A8.79,8.79,0,0,1,588.47,489.44Z" transform="translate(239.04 295.44)"/><path class="cls-7" d="M523.5,170.5a5.44,5.44,0,0,1,3.86,1.59L712.16,356.9a5.47,5.47,0,0,1,0,7.71L592.33,484.44a5.47,5.47,0,0,1-7.71,0L399.81,299.64a5.48,5.48,0,0,1,0-7.72L519.64,172.09a5.44,5.44,0,0,1,3.86-1.59Zm0-6.82a12.17,12.17,0,0,0-8.68,3.59L395,287.1a12.29,12.29,0,0,0,0,17.36l184.8,184.8a12.3,12.3,0,0,0,17.37,0L717,369.43a12.31,12.31,0,0,0,0-17.36L532.18,167.27a12.17,12.17,0,0,0-8.68-3.59Z" transform="translate(239.04 295.44)"/></g><circle class="cls-7" cx="757.68" cy="576.2" r="68.99"/><path class="cls-7" d="M518.64,350a69.21,69.21,0,1,1,48.94-20.27l-.16-.16.16.16A68.76,68.76,0,0,1,518.64,350Zm0-138a68.76,68.76,0,1,0,48.62,20.14A68.28,68.28,0,0,0,518.64,212Z" transform="translate(239.04 295.44)"/><circle class="cls-7" cx="839.13" cy="658.73" r="31.16"/><path class="cls-7" d="M600.09,394.66a31.37,31.37,0,1,1,22.19-9.18A31.3,31.3,0,0,1,600.09,394.66Zm0-62.29A30.92,30.92,0,1,0,622,341.42,30.84,30.84,0,0,0,600.09,332.37Z" transform="translate(239.04 295.44)"/><g class="cls-5"><path class="cls-14" d="M583.8,423.65,463.47,303.33c-7.46-7.47-36.56,16.88-36.56,16.88a4.63,4.63,0,0,0,0,6.52L559.79,459.62a4.63,4.63,0,0,0,6.52,0S592.09,431.94,583.8,423.65Z" transform="translate(239.04 295.44)"/><path class="cls-7" d="M563.05,461.19a4.82,4.82,0,0,1-3.42-1.41L426.75,326.89a4.85,4.85,0,0,1,0-6.84c1.21-1,29.35-24.42,36.89-16.89L584,423.48c8.35,8.36-16.42,35.16-17.48,36.29A4.83,4.83,0,0,1,563.05,461.19ZM459.46,302.12c-10.44,0-32.15,18.06-32.41,18.27a4.38,4.38,0,0,0,0,6.18L560,459.46a4.42,4.42,0,0,0,6.2,0c.25-.27,25.53-27.61,17.48-35.65L463.31,303.49A5.23,5.23,0,0,0,459.46,302.12Z" transform="translate(239.04 295.44)"/></g><circle class="cls-7" cx="685.98" cy="624.19" r="5.6"/><path class="cls-7" d="M446.94,334.57a5.8,5.8,0,1,1,4.12-1.7h0A5.78,5.78,0,0,1,446.94,334.57Zm0-11.19a5.38,5.38,0,0,0-5.37,5.37,5.37,5.37,0,0,0,9.17,3.79h0a5.37,5.37,0,0,0-3.8-9.16Z" transform="translate(239.04 295.44)"/><circle class="cls-7" cx="800.62" cy="738.83" r="5.6"/><path class="cls-7" d="M561.58,449.21a5.83,5.83,0,1,1,4.12-1.71h0A5.81,5.81,0,0,1,561.58,449.21Zm0-11.19a5.37,5.37,0,1,0,3.79,9.16h0a5.37,5.37,0,0,0-3.79-9.16Z" transform="translate(239.04 295.44)"/><circle class="cls-7" cx="795.63" cy="718.02" r="5.6"/><path class="cls-7" d="M556.59,428.39a5.76,5.76,0,0,1-4.11-1.7,5.83,5.83,0,1,1,4.11,1.7Zm0-11.18a5.29,5.29,0,0,0-3.79,1.57,5.37,5.37,0,1,0,3.79-1.57Z" transform="translate(239.04 295.44)"/><circle class="cls-7" cx="710.34" cy="632.72" r="5.6"/><path class="cls-7" d="M471.3,343.1a5.84,5.84,0,1,1,4.11-1.71h0A5.78,5.78,0,0,1,471.3,343.1Zm0-11.19a5.37,5.37,0,1,0,3.79,9.16h0a5.37,5.37,0,0,0-3.79-9.16Z" transform="translate(239.04 295.44)"/><circle class="cls-7" cx="941.78" cy="655.85" r="4.49"/><path class="cls-7" d="M702.74,365.13a4.71,4.71,0,1,1,3.34-1.38h0A4.71,4.71,0,0,1,702.74,365.13Zm0-9a4.26,4.26,0,1,0,0,8.52,4.23,4.23,0,0,0,3-1.24h0a4.26,4.26,0,0,0-3-7.28Z" transform="translate(239.04 295.44)"/><circle class="cls-7" cx="650.56" cy="590.32" r="4.49"/><path class="cls-7" d="M411.51,299.6a4.72,4.72,0,1,1,3.34-1.38h0A4.71,4.71,0,0,1,411.51,299.6Zm0-9a4.23,4.23,0,0,0-3,1.24,4.27,4.27,0,0,0,6,6h0a4.26,4.26,0,0,0-3-7.28Z" transform="translate(239.04 295.44)"/><circle class="cls-7" cx="763.4" cy="477.47" r="4.49"/><path class="cls-7" d="M524.36,186.75a4.72,4.72,0,1,1,3.34-1.38h0A4.71,4.71,0,0,1,524.36,186.75Zm0-9a4.26,4.26,0,0,0-3,7.28,4.27,4.27,0,0,0,6,0h0a4.27,4.27,0,0,0-3-7.28Z" transform="translate(239.04 295.44)"/><circle class="cls-7" cx="828.93" cy="768.7" r="4.49"/><path class="cls-7" d="M589.89,478a4.67,4.67,0,0,1-3.34-1.39,4.72,4.72,0,1,1,6.68,0h0A4.67,4.67,0,0,1,589.89,478Zm0-9a4.27,4.27,0,1,0,3,7.28h0a4.27,4.27,0,0,0-3-7.28Z" transform="translate(239.04 295.44)"/><path class="cls-7" d="M518.09,298.28a17,17,0,1,1,12-5h0A17,17,0,0,1,518.09,298.28Zm0-33.51A16.53,16.53,0,1,0,529.79,293h0a16.53,16.53,0,0,0-11.7-28.22Z" transform="translate(239.04 295.44)"/><circle class="cls-10" cx="757.08" cy="576.8" r="18.95"/><path class="cls-7" d="M600.09,380.28a17,17,0,1,1,12-5h0A16.89,16.89,0,0,1,600.09,380.28Zm0-33.52A16.53,16.53,0,1,0,611.78,375h0a16.53,16.53,0,0,0-11.69-28.22Z" transform="translate(239.04 295.44)"/><circle class="cls-10" cx="839.13" cy="658.73" r="18.87"/><path class="cls-11" d="M611.94,375.14a16.6,16.6,0,0,1-4.2,3.06l-.8-3.1a.76.76,0,0,0-.93-.55l-5.33,1.38a.77.77,0,0,0-.56.93l.82,3.17a16.74,16.74,0,0,1-10-2.66l2.28-2.28a.77.77,0,0,0,0-1.09l-3.89-3.89a.77.77,0,0,0-1.09,0L586,372.39A16.7,16.7,0,0,1,583.38,362l3.14.9a.76.76,0,0,0,1-.52l1.52-5.29a.76.76,0,0,0-.52-.95l-3.07-.89a16.78,16.78,0,0,1,7.34-7l.83,3.23a.77.77,0,0,0,.94.55l5.33-1.37a.77.77,0,0,0,.55-.94l-.81-3.15a16.74,16.74,0,0,1,9.6,2.67l-2.28,2.28a.77.77,0,0,0,0,1.09l3.89,3.89a.77.77,0,0,0,1.09,0l2.28-2.28a16.71,16.71,0,0,1,2.66,10.08l-3.08-.89a.76.76,0,0,0-1,.53l-1.53,5.28a.77.77,0,0,0,.53.95l3.15.91A16.63,16.63,0,0,1,611.94,375.14Z" transform="translate(239.04 295.44)"/><path class="cls-11" d="M530,293.15a16.6,16.6,0,0,1-4.2,3.06l-.8-3.1a.76.76,0,0,0-.93-.55l-5.33,1.38a.77.77,0,0,0-.56.93L519,298a16.74,16.74,0,0,1-10-2.66l2.28-2.28a.77.77,0,0,0,0-1.09l-3.9-3.89a.76.76,0,0,0-1.08,0L504,290.4A16.7,16.7,0,0,1,501.39,280l3.14.9a.76.76,0,0,0,1-.52l1.52-5.29a.76.76,0,0,0-.52-.95l-3.07-.89a16.78,16.78,0,0,1,7.34-7l.83,3.23a.77.77,0,0,0,.94.55l5.33-1.37a.77.77,0,0,0,.55-.94l-.81-3.15a16.74,16.74,0,0,1,9.6,2.67l-2.28,2.28a.77.77,0,0,0,0,1.09l3.89,3.89a.77.77,0,0,0,1.09,0l2.28-2.28a16.71,16.71,0,0,1,2.66,10.08l-3.08-.89a.76.76,0,0,0-1,.53l-1.53,5.28a.77.77,0,0,0,.53.95l3.15.91A17,17,0,0,1,530,293.15Z" transform="translate(239.04 295.44)"/><path class="cls-18" d="M691.63,357.62l-165-165a4.63,4.63,0,0,0-6.52,0l-73.47,73.46a4.63,4.63,0,0,0,0,6.52l165,165a4.61,4.61,0,0,0,6.52,0l73.47-73.46A4.63,4.63,0,0,0,691.63,357.62Zm-83,38.69a4.63,4.63,0,0,1-6.52,0L487.94,282.12a4.63,4.63,0,0,1,0-6.52l24.45-24.45a4.61,4.61,0,0,1,6.52,0l114.2,114.19a4.63,4.63,0,0,1,0,6.52Z" transform="translate(239.04 295.44)"/><text class="cls-13" transform="translate(785.22 556.15) rotate(45)">best ballads</text><line class="cls-9" x1="786.78" y1="534.17" x2="908.83" y2="656.23"/><line class="cls-9" x1="901.41" y1="664.92" x2="779.53" y2="543.03"/><path class="cls-8" d="M658.53,359.78c-1.78-6.17-1.67-10.83.2-11.72.3-.15,1.8-.74,5.22,2.28q4.89,1,5.14,2.61Q669.47,355.52,658.53,359.78Z" transform="translate(239.04 295.44)"/><path class="cls-8" d="M657.56,366.4c1.5-3.17,3.23-5,4.32-4.72.18.05,1,.34,1.31,2.81,1.1,1.44,1.49,2.42,1.16,2.93C663.84,368.21,661.57,367.87,657.56,366.4Z" transform="translate(239.04 295.44)"/><path class="cls-4" d="M200.38,12.3H464.21a8.8,8.8,0,0,1,8.8,8.8V188.5a19.18,19.18,0,0,1-19.18,19.18H200.38A19.18,19.18,0,0,1,181.2,188.5v-157A19.18,19.18,0,0,1,200.38,12.3Z" transform="translate(412.62 96.36) rotate(45)"/><g class="cls-5"><path class="cls-6" d="M358.54,259.51a8.81,8.81,0,0,1-6.27-2.59L167.47,72.12a8.87,8.87,0,0,1,0-12.54L287.3-60.25a8.81,8.81,0,0,1,6.27-2.59,8.81,8.81,0,0,1,6.27,2.59l184.8,184.8a8.88,8.88,0,0,1,0,12.54L364.81,256.92A8.79,8.79,0,0,1,358.54,259.51Z" transform="translate(239.04 295.44)"/><path class="cls-7" d="M293.57-59.43a5.44,5.44,0,0,1,3.86,1.59L482.23,127a5.48,5.48,0,0,1,0,7.72L362.4,254.51a5.47,5.47,0,0,1-7.71,0L169.88,69.71a5.48,5.48,0,0,1,0-7.72L289.71-57.84a5.44,5.44,0,0,1,3.86-1.59m0-6.82a12.15,12.15,0,0,0-8.68,3.59L165.06,57.17a12.28,12.28,0,0,0,0,17.36l184.8,184.8a12.29,12.29,0,0,0,17.36,0L487.05,139.5a12.29,12.29,0,0,0,0-17.36L302.25-62.66a12.17,12.17,0,0,0-8.68-3.59Z" transform="translate(239.04 295.44)"/></g><circle class="cls-4" cx="527.75" cy="346.27" r="68.99"/><circle class="cls-4" cx="609.2" cy="428.8" r="31.16"/><path class="cls-8" d="M353.86,193.71,233.54,73.39C226.08,65.93,197,90.28,197,90.28a4.61,4.61,0,0,0,0,6.52L329.86,229.69a4.63,4.63,0,0,0,6.52,0S362.16,202,353.86,193.71Z" transform="translate(239.04 295.44)"/><circle class="cls-4" cx="456.05" cy="394.26" r="5.6"/><circle class="cls-4" cx="570.69" cy="508.9" r="5.6"/><circle class="cls-4" cx="565.7" cy="488.09" r="5.6"/><circle class="cls-4" cx="480.41" cy="402.79" r="5.6"/><circle class="cls-4" cx="711.85" cy="425.92" r="4.49"/><circle class="cls-4" cx="420.62" cy="360.39" r="4.49"/><circle class="cls-4" cx="533.47" cy="247.54" r="4.49"/><circle class="cls-4" cx="599" cy="538.77" r="4.49"/><circle class="cls-9" cx="527.21" cy="346.81" r="16.76"/><circle class="cls-10" cx="527.15" cy="346.87" r="18.95"/><circle class="cls-9" cx="609.2" cy="428.8" r="16.76"/><circle class="cls-10" cx="609.2" cy="428.8" r="18.87"/><path class="cls-11" d="M382,145.21a16.38,16.38,0,0,1-4.19,3.06l-.8-3.1a.77.77,0,0,0-.94-.55L370.74,146a.79.79,0,0,0-.55.94l.82,3.16a16.71,16.71,0,0,1-10-2.65l2.29-2.28a.77.77,0,0,0,0-1.09l-3.9-3.89a.76.76,0,0,0-1.08,0l-2.28,2.28A16.72,16.72,0,0,1,353.45,132l3.14.9a.77.77,0,0,0,1-.52l1.52-5.29a.76.76,0,0,0-.52-1l-3.08-.89a17,17,0,0,1,2.84-3.77,16.82,16.82,0,0,1,4.51-3.22l.83,3.23a.77.77,0,0,0,.94.55l5.33-1.37a.77.77,0,0,0,.55-.94l-.81-3.15a16.66,16.66,0,0,1,9.6,2.67L377,121.56a.77.77,0,0,0,0,1.09l3.89,3.89a.77.77,0,0,0,1.09,0l2.28-2.28a16.77,16.77,0,0,1,2.66,10.08l-3.08-.89a.76.76,0,0,0-.95.52l-1.53,5.29a.77.77,0,0,0,.53,1l3.15.91A16.79,16.79,0,0,1,382,145.21Z" transform="translate(239.04 295.44)"/><path class="cls-11" d="M300,63.22a16.38,16.38,0,0,1-4.19,3.06l-.8-3.1a.77.77,0,0,0-.94-.55L288.75,64a.79.79,0,0,0-.55.94L289,68.1a16.78,16.78,0,0,1-10-2.65l2.29-2.28a.77.77,0,0,0,0-1.09l-3.9-3.89a.76.76,0,0,0-1.08,0l-2.28,2.28A16.72,16.72,0,0,1,271.46,50l3.14.9a.77.77,0,0,0,.95-.52l1.52-5.29a.76.76,0,0,0-.52-1l-3.08-.89a17,17,0,0,1,2.84-3.77,16.82,16.82,0,0,1,4.51-3.22l.83,3.23a.77.77,0,0,0,.94.55l5.33-1.37a.77.77,0,0,0,.55-.94l-.81-3.15a16.66,16.66,0,0,1,9.6,2.67L295,39.57a.77.77,0,0,0,0,1.09l3.89,3.89a.77.77,0,0,0,1.09,0l2.28-2.28a16.77,16.77,0,0,1,2.66,10.08l-3.08-.89a.76.76,0,0,0-.95.52l-1.53,5.29a.77.77,0,0,0,.53.95l3.15.91A16.79,16.79,0,0,1,300,63.22Z" transform="translate(239.04 295.44)"/><path class="cls-19" d="M461.69,127.69l-165-165a4.61,4.61,0,0,0-6.52,0L216.72,36.16a4.63,4.63,0,0,0,0,6.52l165,165a4.63,4.63,0,0,0,6.52,0l73.46-73.46A4.61,4.61,0,0,0,461.69,127.69Zm-83,38.69a4.63,4.63,0,0,1-6.52,0L258,52.19a4.63,4.63,0,0,1,0-6.52l24.45-24.46a4.63,4.63,0,0,1,6.52,0l114.19,114.2a4.61,4.61,0,0,1,0,6.52Z" transform="translate(239.04 295.44)"/><text class="cls-13" transform="translate(555.28 326.22) rotate(45)">best ballads</text><line class="cls-9" x1="556.85" y1="304.24" x2="678.9" y2="426.29"/><line class="cls-9" x1="671.48" y1="434.99" x2="549.6" y2="313.1"/><path class="cls-8" d="M428.6,129.85c-1.78-6.17-1.67-10.83.2-11.72.3-.15,1.8-.74,5.22,2.28q4.89,1,5.14,2.61Q439.54,125.59,428.6,129.85Z" transform="translate(239.04 295.44)"/><path class="cls-8" d="M427.63,136.47c1.5-3.17,3.23-5,4.32-4.73.18,0,1,.35,1.31,2.82,1.1,1.44,1.49,2.42,1.16,2.93C433.91,138.28,431.64,137.94,427.63,136.47Z" transform="translate(239.04 295.44)"/><path class="cls-4" d="M452.33-64.4H716.16a8.8,8.8,0,0,1,8.8,8.8V111.81A19.18,19.18,0,0,1,705.78,131H452.33a19.18,19.18,0,0,1-19.18-19.18v-157A19.18,19.18,0,0,1,452.33-64.4Z" transform="translate(432.19 -104.26) rotate(45)"/><g class="cls-5"><path class="cls-6" d="M610.5,182.82a8.76,8.76,0,0,1-6.27-2.6L419.42-4.58a8.89,8.89,0,0,1,0-12.54L539.25-136.95a8.81,8.81,0,0,1,6.27-2.59,8.79,8.79,0,0,1,6.27,2.59L736.6,47.86a8.87,8.87,0,0,1,0,12.53L616.77,180.22A8.78,8.78,0,0,1,610.5,182.82Z" transform="translate(239.04 295.44)"/><path class="cls-7" d="M545.52-136.13a5.44,5.44,0,0,1,3.86,1.59L734.19,50.27a5.47,5.47,0,0,1,0,7.71L614.36,177.81a5.48,5.48,0,0,1-7.72,0L421.83-7a5.48,5.48,0,0,1,0-7.72L541.66-134.54a5.46,5.46,0,0,1,3.86-1.59Zm0-6.82a12.18,12.18,0,0,0-8.68,3.59L417-19.53a12.21,12.21,0,0,0-3.59,8.68A12.21,12.21,0,0,0,417-2.17L601.82,182.64a12.29,12.29,0,0,0,17.36,0L739,62.81a12.3,12.3,0,0,0,0-17.37L554.2-139.36a12.15,12.15,0,0,0-8.68-3.59Z" transform="translate(239.04 295.44)"/></g><circle class="cls-7" cx="779.7" cy="269.57" r="68.99"/><path class="cls-7" d="M540.66,43.31a69,69,0,0,1-48.94-20.24,69.28,69.28,0,0,1,0-97.88,69.28,69.28,0,0,1,97.88,0,68.73,68.73,0,0,1,20.28,48.94A68.73,68.73,0,0,1,589.6,23.07,69,69,0,0,1,540.66,43.31Zm0-137.91A68.51,68.51,0,0,0,492-74.49a68.84,68.84,0,0,0,0,97.24,68.84,68.84,0,0,0,97.24,0,68.3,68.3,0,0,0,20.14-48.62,68.3,68.3,0,0,0-20.14-48.62A68.51,68.51,0,0,0,540.66-94.6Z" transform="translate(239.04 295.44)"/><circle class="cls-7" cx="861.15" cy="352.1" r="31.16"/><path class="cls-7" d="M622.11,88a31.37,31.37,0,1,1,22.19-9.17A31.33,31.33,0,0,1,622.11,88Zm0-62.29A30.93,30.93,0,1,0,644,78.53h0a30.92,30.92,0,0,0-21.87-52.79Z" transform="translate(239.04 295.44)"/><g class="cls-5"><path class="cls-14" d="M605.82,117,485.5-3.3c-7.47-7.47-36.57,16.89-36.57,16.89a4.63,4.63,0,0,0,0,6.52L581.81,153a4.63,4.63,0,0,0,6.52,0S614.11,125.31,605.82,117Z" transform="translate(239.04 295.44)"/><path class="cls-7" d="M585.07,154.56a4.84,4.84,0,0,1-3.42-1.41L448.77,20.27a4.85,4.85,0,0,1,0-6.84c1.21-1,29.35-24.43,36.89-16.89L606,116.86c8.35,8.35-16.42,35.15-17.48,36.28A4.83,4.83,0,0,1,585.07,154.56ZM481.48-4.51c-10.44,0-32.15,18.06-32.4,18.27a4.38,4.38,0,0,0,0,6.19L582,152.83a4.38,4.38,0,0,0,6.19,0c.25-.27,25.53-27.61,17.49-35.65L485.34-3.14A5.25,5.25,0,0,0,481.48-4.51Z" transform="translate(239.04 295.44)"/></g><circle class="cls-7" cx="708.01" cy="317.56" r="5.6"/><path class="cls-7" d="M469,27.94A5.82,5.82,0,1,1,473.08,18a5.84,5.84,0,0,1,0,8.24A5.77,5.77,0,0,1,469,27.94Zm0-11.19a5.37,5.37,0,1,0,3.79,1.57A5.34,5.34,0,0,0,469,16.75Z" transform="translate(239.04 295.44)"/><circle class="cls-7" cx="822.64" cy="432.2" r="5.6"/><path class="cls-7" d="M583.6,142.58a5.82,5.82,0,1,1,4.12-1.7h0A5.84,5.84,0,0,1,583.6,142.58Zm0-11.19a5.37,5.37,0,1,0,3.8,9.16h0a5.37,5.37,0,0,0-3.8-9.16Z" transform="translate(239.04 295.44)"/><circle class="cls-7" cx="817.66" cy="411.39" r="5.6"/><path class="cls-7" d="M578.62,121.77a5.84,5.84,0,1,1,4.11-1.71h0A5.78,5.78,0,0,1,578.62,121.77Zm0-11.19a5.37,5.37,0,1,0,3.79,9.16h0a5.37,5.37,0,0,0-3.79-9.16Z" transform="translate(239.04 295.44)"/><circle class="cls-7" cx="732.36" cy="326.09" r="5.6"/><path class="cls-7" d="M493.32,36.47a5.78,5.78,0,0,1-4.12-1.7,5.84,5.84,0,0,1,0-8.24,5.84,5.84,0,0,1,8.24,0,5.82,5.82,0,0,1-4.12,9.94Zm0-11.19a5.37,5.37,0,0,0,0,10.74,5.3,5.3,0,0,0,3.79-1.58,5.37,5.37,0,0,0-3.79-9.16Z" transform="translate(239.04 295.44)"/><circle class="cls-7" cx="963.8" cy="349.22" r="4.49"/><path class="cls-7" d="M724.76,58.5a4.72,4.72,0,1,1,3.34-1.38h0A4.71,4.71,0,0,1,724.76,58.5Zm0-9a4.2,4.2,0,0,0-3,1.25,4.26,4.26,0,0,0,6,6h0a4.27,4.27,0,0,0-3-7.28Z" transform="translate(239.04 295.44)"/><circle class="cls-7" cx="672.58" cy="283.7" r="4.49"/><path class="cls-7" d="M433.54-7a4.7,4.7,0,0,1-3.34-1.38,4.7,4.7,0,0,1-1.38-3.34,4.67,4.67,0,0,1,1.38-3.33,4.72,4.72,0,0,1,6.67,0,4.72,4.72,0,0,1,0,6.67h0A4.67,4.67,0,0,1,433.54-7Zm0-9a4.25,4.25,0,0,0-3,1.25,4.24,4.24,0,0,0-1.25,3,4.28,4.28,0,0,0,1.25,3,4.28,4.28,0,0,0,3,1.25,4.24,4.24,0,0,0,3-1.25,4.26,4.26,0,0,0,0-6A4.25,4.25,0,0,0,433.54-16Z" transform="translate(239.04 295.44)"/><circle class="cls-7" cx="785.43" cy="170.85" r="4.49"/><path class="cls-7" d="M546.39-119.88a4.71,4.71,0,0,1-3.34-1.38,4.7,4.7,0,0,1-1.38-3.34,4.67,4.67,0,0,1,1.38-3.33,4.69,4.69,0,0,1,3.34-1.39,4.68,4.68,0,0,1,3.33,1.39,4.72,4.72,0,0,1,0,6.67h0A4.7,4.7,0,0,1,546.39-119.88Zm0-9a4.24,4.24,0,0,0-3,1.25,4.2,4.2,0,0,0-1.25,3,4.24,4.24,0,0,0,1.25,3,4.27,4.27,0,0,0,6,0h0a4.27,4.27,0,0,0,0-6A4.21,4.21,0,0,0,546.39-128.86Z" transform="translate(239.04 295.44)"/><circle class="cls-7" cx="850.96" cy="462.07" r="4.49"/><path class="cls-7" d="M611.91,171.35a4.71,4.71,0,1,1,3.34-1.38h0A4.71,4.71,0,0,1,611.91,171.35Zm0-9a4.26,4.26,0,1,0,3,7.28h0a4.26,4.26,0,0,0-3-7.28Z" transform="translate(239.04 295.44)"/><path class="cls-7" d="M540.12-8.35a16.94,16.94,0,0,1-12-5,17,17,0,0,1,0-24,17,17,0,0,1,24,0,16.87,16.87,0,0,1,5,12,16.85,16.85,0,0,1-5,12A16.9,16.9,0,0,1,540.12-8.35Zm0-33.5A16.47,16.47,0,0,0,528.43-37a16.54,16.54,0,0,0,0,23.38,16.54,16.54,0,0,0,23.38,0,16.42,16.42,0,0,0,4.84-11.69A16.44,16.44,0,0,0,551.81-37,16.49,16.49,0,0,0,540.12-41.85Z" transform="translate(239.04 295.44)"/><circle class="cls-10" cx="779.1" cy="270.17" r="18.95"/><path class="cls-7" d="M622.11,73.65a17,17,0,1,1,12-5h0A16.87,16.87,0,0,1,622.11,73.65Zm0-33.52A16.54,16.54,0,1,0,633.8,68.35h0a16.53,16.53,0,0,0-11.69-28.22Z" transform="translate(239.04 295.44)"/><circle class="cls-10" cx="861.15" cy="352.1" r="18.87"/><path class="cls-11" d="M634,68.51a16.43,16.43,0,0,1-4.2,3.06l-.79-3.1a.78.78,0,0,0-.94-.55L622.7,69.3a.77.77,0,0,0-.56.93L623,73.4a16.69,16.69,0,0,1-10-2.66l2.28-2.28a.77.77,0,0,0,0-1.09l-3.89-3.89a.77.77,0,0,0-1.09,0L608,65.76a16.7,16.7,0,0,1-2.63-10.43l3.14.9a.76.76,0,0,0,1-.52L611,50.42a.77.77,0,0,0-.53-1l-3.07-.89a16.66,16.66,0,0,1,2.84-3.77,16.84,16.84,0,0,1,4.5-3.22l.84,3.23a.77.77,0,0,0,.94.55L621.87,44a.77.77,0,0,0,.54-.94l-.81-3.15a16.77,16.77,0,0,1,9.61,2.67l-2.28,2.29a.76.76,0,0,0,0,1.08l3.89,3.9a.78.78,0,0,0,1.08,0l2.29-2.29a16.79,16.79,0,0,1,2.65,10.08l-3.08-.89a.78.78,0,0,0-1,.53l-1.52,5.29a.75.75,0,0,0,.52.94l3.16.91A16.67,16.67,0,0,1,634,68.51Z" transform="translate(239.04 295.44)"/><path class="cls-11" d="M552-13.48a16.43,16.43,0,0,1-4.2,3.06l-.79-3.1a.78.78,0,0,0-.94-.55l-5.33,1.38a.77.77,0,0,0-.56.93L541-8.59a16.69,16.69,0,0,1-10-2.66l2.28-2.28a.77.77,0,0,0,0-1.09l-3.89-3.89a.77.77,0,0,0-1.09,0L526-16.23a16.7,16.7,0,0,1-2.63-10.43l3.14.9a.76.76,0,0,0,1-.52L529-31.57a.77.77,0,0,0-.53-1l-3.07-.89a16.66,16.66,0,0,1,2.84-3.77,16.84,16.84,0,0,1,4.5-3.22l.84,3.23a.76.76,0,0,0,.94.55L539.87-38a.77.77,0,0,0,.55-.94l-.81-3.15a16.77,16.77,0,0,1,9.61,2.67l-2.28,2.29a.76.76,0,0,0,0,1.08l3.89,3.89a.76.76,0,0,0,1.08,0l2.29-2.28a16.79,16.79,0,0,1,2.65,10.08l-3.08-.89a.78.78,0,0,0-.95.53l-1.52,5.29a.75.75,0,0,0,.52.94l3.16.91A16.67,16.67,0,0,1,552-13.48Z" transform="translate(239.04 295.44)"/><path class="cls-20" d="M713.65,51l-165-165a4.63,4.63,0,0,0-6.52,0L468.67-40.53a4.63,4.63,0,0,0,0,6.52l165,165a4.61,4.61,0,0,0,6.52,0l73.47-73.46A4.63,4.63,0,0,0,713.65,51Zm-83,38.69a4.61,4.61,0,0,1-6.52,0L510-24.51A4.63,4.63,0,0,1,510-31l24.46-24.45a4.61,4.61,0,0,1,6.52,0L655.13,58.71a4.63,4.63,0,0,1,0,6.52Z" transform="translate(239.04 295.44)"/><text class="cls-13" transform="translate(807.24 249.52) rotate(45)">best ballads</text><line class="cls-9" x1="808.81" y1="227.55" x2="930.86" y2="349.6"/><line class="cls-9" x1="923.44" y1="358.29" x2="801.55" y2="236.41"/><path class="cls-8" d="M680.55,53.16c-1.78-6.18-1.66-10.84.21-11.73.3-.14,1.79-.74,5.21,2.29,3.26.63,5,1.5,5.14,2.6Q691.5,48.9,680.55,53.16Z" transform="translate(239.04 295.44)"/><path class="cls-8" d="M679.58,59.77c1.51-3.17,3.24-5,4.33-4.72.17.05,1,.34,1.3,2.82,1.11,1.44,1.49,2.41,1.17,2.92C685.86,61.58,683.6,61.24,679.58,59.77Z" transform="translate(239.04 295.44)"/></g><path class="cls-4" d="M38.91,500.26H302.74a8.8,8.8,0,0,1,8.8,8.8V676.46a19.18,19.18,0,0,1-19.18,19.18H38.91a19.18,19.18,0,0,1-19.18-19.18v-157a19.18,19.18,0,0,1,19.18-19.18Z" transform="translate(710.37 353.46) rotate(45)"/><g class="cls-5"><path class="cls-6" d="M197.07,747.47a8.79,8.79,0,0,1-6.26-2.59L6,560.07a8.87,8.87,0,0,1,0-12.54L125.83,427.71a8.86,8.86,0,0,1,12.54,0l184.8,184.8a8.87,8.87,0,0,1,0,12.54L203.34,744.88A8.79,8.79,0,0,1,197.07,747.47Z" transform="translate(239.04 295.44)"/><path class="cls-7" d="M132.1,428.52a5.45,5.45,0,0,1,3.86,1.6l184.8,184.8a5.46,5.46,0,0,1,0,7.72L200.93,742.47a5.47,5.47,0,0,1-7.71,0L8.41,557.66a5.47,5.47,0,0,1,0-7.71L128.24,430.12a5.45,5.45,0,0,1,3.86-1.6m0-6.82a12.21,12.21,0,0,0-8.68,3.59L3.59,545.12a12.3,12.3,0,0,0,0,17.37l184.8,184.8a12.3,12.3,0,0,0,17.37,0L325.59,627.46a12.3,12.3,0,0,0,0-17.36L140.78,425.29a12.21,12.21,0,0,0-8.68-3.59Z" transform="translate(239.04 295.44)"/></g><circle class="cls-4" cx="366.28" cy="834.23" r="68.99"/><circle class="cls-4" cx="447.73" cy="916.76" r="31.16"/><path class="cls-8" d="M192.4,681.67,72.08,561.35c-7.47-7.47-36.57,16.89-36.57,16.89a4.63,4.63,0,0,0,0,6.52L168.39,717.64a4.61,4.61,0,0,0,6.52,0S200.69,690,192.4,681.67Z" transform="translate(239.04 295.44)"/><circle class="cls-4" cx="294.58" cy="882.22" r="5.6"/><circle class="cls-4" cx="409.22" cy="996.86" r="5.6"/><circle class="cls-4" cx="404.24" cy="976.04" r="5.6"/><circle class="cls-4" cx="318.94" cy="890.75" r="5.6"/><circle class="cls-4" cx="550.38" cy="913.88" r="4.49"/><circle class="cls-4" cx="259.16" cy="848.35" r="4.49"/><circle class="cls-4" cx="372" cy="735.5" r="4.49"/><circle class="cls-4" cx="437.53" cy="1026.73" r="4.49"/><circle class="cls-9" cx="365.74" cy="834.77" r="16.76"/><circle class="cls-10" cx="365.68" cy="834.83" r="18.95"/><circle class="cls-9" cx="447.73" cy="916.76" r="16.76"/><circle class="cls-10" cx="447.73" cy="916.76" r="18.87"/><path class="cls-11" d="M220.54,633.17a17.1,17.1,0,0,1-4.2,3.06l-.8-3.1a.76.76,0,0,0-.93-.55L209.28,634a.79.79,0,0,0-.56.94l.82,3.16a16.67,16.67,0,0,1-9.95-2.66l2.28-2.28a.76.76,0,0,0,0-1.08l-3.89-3.9a.77.77,0,0,0-1.09,0l-2.28,2.29A16.73,16.73,0,0,1,192,620l3.14.91a.77.77,0,0,0,.95-.52l1.53-5.29a.78.78,0,0,0-.53-1l-3.07-.88a16.78,16.78,0,0,1,7.34-7l.84,3.23a.77.77,0,0,0,.93.55l5.33-1.38a.76.76,0,0,0,.55-.93l-.81-3.16a16.65,16.65,0,0,1,9.6,2.68l-2.28,2.28a.77.77,0,0,0,0,1.09l3.9,3.89a.76.76,0,0,0,1.08,0l2.28-2.28a16.68,16.68,0,0,1,2.66,10.07l-3.08-.89a.77.77,0,0,0-1,.53l-1.52,5.29a.76.76,0,0,0,.52.95l3.15.91A17,17,0,0,1,220.54,633.17Z" transform="translate(239.04 295.44)"/><path class="cls-11" d="M138.55,551.18a17.1,17.1,0,0,1-4.2,3.06l-.8-3.1a.76.76,0,0,0-.93-.55L127.29,552a.79.79,0,0,0-.56.94l.82,3.16a16.67,16.67,0,0,1-10-2.66l2.28-2.28a.76.76,0,0,0,0-1.08l-3.89-3.9a.77.77,0,0,0-1.09,0l-2.28,2.29A16.73,16.73,0,0,1,110,538l3.14.91a.77.77,0,0,0,1-.52l1.53-5.29a.78.78,0,0,0-.53-1l-3.07-.88a16.78,16.78,0,0,1,7.34-7l.84,3.23a.77.77,0,0,0,.93.55l5.33-1.38a.76.76,0,0,0,.55-.93l-.81-3.16a16.67,16.67,0,0,1,9.6,2.68l-2.28,2.28a.77.77,0,0,0,0,1.09l3.9,3.89a.76.76,0,0,0,1.08,0l2.28-2.28a16.68,16.68,0,0,1,2.66,10.07l-3.08-.89a.77.77,0,0,0-.95.53l-1.52,5.29a.76.76,0,0,0,.52.95l3.15.91A17,17,0,0,1,138.55,551.18Z" transform="translate(239.04 295.44)"/><path class="cls-21" d="M300.23,615.64l-165-165a4.63,4.63,0,0,0-6.52,0L55.25,524.12a4.63,4.63,0,0,0,0,6.52l165,165a4.63,4.63,0,0,0,6.52,0l73.47-73.47A4.63,4.63,0,0,0,300.23,615.64Zm-83,38.7a4.63,4.63,0,0,1-6.52,0L96.54,540.15a4.63,4.63,0,0,1,0-6.52L121,509.17a4.63,4.63,0,0,1,6.52,0l114.2,114.19a4.63,4.63,0,0,1,0,6.52Z" transform="translate(239.04 295.44)"/><text class="cls-13" transform="translate(393.82 814.18) rotate(45)">best ballads</text><line class="cls-9" x1="395.38" y1="792.2" x2="517.43" y2="914.25"/><line class="cls-9" x1="510.01" y1="922.95" x2="388.13" y2="801.06"/><path class="cls-8" d="M267.13,617.81c-1.78-6.17-1.67-10.83.2-11.73.31-.14,1.8-.74,5.22,2.29q4.89,1,5.14,2.6Q278.07,613.55,267.13,617.81Z" transform="translate(239.04 295.44)"/><path class="cls-8" d="M266.16,624.42c1.51-3.16,3.23-5,4.32-4.72.18,0,1,.35,1.31,2.82,1.1,1.44,1.49,2.41,1.16,2.92C272.44,626.24,270.17,625.9,266.16,624.42Z" transform="translate(239.04 295.44)"/></g></g></svg>