<svg xmlns="http://www.w3.org/2000/svg" viewBox="0 0 340.77 349.15"><defs><style>.cls-1{fill:#ded59d;}.cls-2{fill:#ffd677;}.cls-3{fill:#383527;}.cls-4{fill:#f2eed8;}.cls-5{fill:none;stroke:#40361e;stroke-linecap:round;stroke-miterlimit:10;stroke-width:3px;}.cls-6{fill:#1a1f1c;}.cls-7{opacity:0.69;}.cls-8{fill:#2a2d2b;}.cls-9{fill:#1f2321;}.cls-10{fill:#fff;}.cls-11{fill:#231f20;}.cls-12{fill:#7d5aca;}.cls-13{opacity:0.54;}.cls-14{fill:#523957;}.cls-15{fill:#40361e;}.cls-16{fill:#ffe6ad;}</style></defs><g id="Layer_2" data-name="Layer 2"><g id="Layer_4" data-name="Layer 4"><polygon class="cls-1" points="83.27 6.87 95.01 10.25 98.05 22.41 89.44 30.88 77.27 27.53 74.23 15.84 83.27 6.87"/><path class="cls-2" d="M312.37,244.46c-.91.6-1.73.26-2.29,1-.8,1,.29,2.44-.44,3.17s-2.08-.32-3,.44-.06,1.85-.86,2.61-1.95-.15-3.15.61-.61,1.91-1.87,3-2,.29-3.16,1.31-.81,1.83-1.84,2.72L293.1,258l-114-121.4,17.75-17.28,114,121.4Z"/><path class="cls-3" d="M324,272.61l-6-2.82,3.41-3.4Z"/><path class="cls-4" d="M321.37,266.44l-3.41,3.4-22.22-10.5c1-.89.74-1.79,1.84-2.72s2-.32,3.16-1.31.7-2.26,1.87-3,2.32.19,3.15-.61.08-1.93.86-2.61,2.25.26,3-.44-.36-2.14.44-3.17c.56-.72,1.38-.38,2.29-1Z"/><line class="cls-5" x1="187.84" y1="133.8" x2="299.28" y2="249.88"/><line class="cls-5" x1="194.42" y1="127.22" x2="305.87" y2="243.29"/><path class="cls-6" d="M49.52,85.82H313.35a8.8,8.8,0,0,1,8.8,8.8V262A19.18,19.18,0,0,1,303,281.2H49.52A19.18,19.18,0,0,1,30.34,262V105A19.18,19.18,0,0,1,49.52,85.82Z" transform="translate(-78.14 178.37) rotate(-45)"/><path class="cls-6" d="M340.77,149.42a19.39,19.39,0,0,1-5.68,13.73L155.88,342.36a19.45,19.45,0,0,1-27.45,0l-111-111a19.47,19.47,0,0,1,0-27.45L204,17.32a9.06,9.06,0,0,1,12.77,0L335.09,135.7A19.35,19.35,0,0,1,340.77,149.42ZM12.19,217.6A18.82,18.82,0,0,0,17.72,231l111,111a19,19,0,0,0,26.81,0L334.77,162.82a19,19,0,0,0,0-26.8L216.39,17.65a8.55,8.55,0,0,0-12.11,0L17.72,204.2A18.82,18.82,0,0,0,12.19,217.6Z"/><g class="cls-7"><path class="cls-8" d="M325.76,152.07a8.81,8.81,0,0,1-2.59,6.27L138.37,343.15a8.89,8.89,0,0,1-12.54,0L6,223.32a8.88,8.88,0,0,1,0-12.54L190.81,26a8.88,8.88,0,0,1,12.54,0L323.17,145.8A8.81,8.81,0,0,1,325.76,152.07Z"/><path class="cls-6" d="M6.82,217.05a5.44,5.44,0,0,1,1.59-3.86L193.22,28.38a5.47,5.47,0,0,1,7.71,0L320.76,148.21a5.48,5.48,0,0,1,0,7.72L136,340.73a5.46,5.46,0,0,1-7.72,0L8.41,220.9a5.44,5.44,0,0,1-1.59-3.85m-6.82,0a12.18,12.18,0,0,0,3.59,8.68L123.42,345.56a12.29,12.29,0,0,0,17.36,0L325.59,160.75a12.29,12.29,0,0,0,0-17.36L205.76,23.56a12.3,12.3,0,0,0-17.37,0L3.59,208.36A12.19,12.19,0,0,0,0,217.05Z"/></g><circle class="cls-6" cx="117.08" cy="221.91" r="68.99"/><path class="cls-6" d="M186.29,221.91A69.22,69.22,0,1,1,166,173l-.16.16L166,173A68.76,68.76,0,0,1,186.29,221.91Zm-137.94,0A68.75,68.75,0,1,0,165.7,173.29h0A68.73,68.73,0,0,0,48.35,221.91Z"/><circle class="cls-6" cx="199.61" cy="140.46" r="31.16"/><path class="cls-6" d="M231,140.46a31.37,31.37,0,1,1-9.17-22.19h0A31.29,31.29,0,0,1,231,140.46Zm-62.29,0a30.92,30.92,0,1,0,9.05-21.87A30.84,30.84,0,0,0,168.69,140.46Z"/><g class="cls-7"><path class="cls-9" d="M260,156.75,139.65,277.07c-7.47,7.47,16.89,36.57,16.89,36.57a4.63,4.63,0,0,0,6.52,0L295.94,180.75a4.63,4.63,0,0,0,0-6.52S268.26,148.46,260,156.75Z"/><path class="cls-6" d="M297.51,177.49a4.83,4.83,0,0,1-1.41,3.43L163.22,313.8a4.85,4.85,0,0,1-6.84,0c-1-1.21-24.42-29.36-16.89-36.89L259.81,156.59c8.35-8.35,35.15,16.42,36.28,17.48A4.78,4.78,0,0,1,297.51,177.49ZM138.44,281.08c0,10.45,18.06,32.16,18.27,32.41a4.41,4.41,0,0,0,6.18,0L295.78,180.59a4.38,4.38,0,0,0,0-6.19c-.27-.26-27.61-25.54-35.65-17.49L139.81,277.23A5.23,5.23,0,0,0,138.44,281.08Z"/></g><circle class="cls-6" cx="165.07" cy="293.6" r="5.6"/><path class="cls-6" d="M170.89,293.6a5.82,5.82,0,1,1-1.7-4.11h0A5.77,5.77,0,0,1,170.89,293.6Zm-11.19,0a5.37,5.37,0,1,0,9.17-3.79h0a5.38,5.38,0,0,0-9.17,3.79Z"/><circle class="cls-6" cx="279.71" cy="178.97" r="5.6"/><path class="cls-6" d="M285.53,179a5.82,5.82,0,1,1-1.7-4.12A5.8,5.8,0,0,1,285.53,179Zm-11.19,0a5.36,5.36,0,1,0,1.57-3.8A5.36,5.36,0,0,0,274.34,179Z"/><circle class="cls-6" cx="258.9" cy="183.95" r="5.6"/><path class="cls-6" d="M264.72,184a5.84,5.84,0,1,1-1.71-4.11A5.81,5.81,0,0,1,264.72,184Zm-11.19,0a5.38,5.38,0,1,0,1.57-3.79A5.34,5.34,0,0,0,253.53,184Z"/><circle class="cls-6" cx="173.6" cy="269.25" r="5.6"/><path class="cls-6" d="M179.42,269.25a5.78,5.78,0,0,1-1.7,4.12,5.84,5.84,0,0,1-8.24,0,5.84,5.84,0,0,1,0-8.24,5.84,5.84,0,0,1,8.24,0h0A5.78,5.78,0,0,1,179.42,269.25Zm-11.19,0a5.37,5.37,0,0,0,10.74,0,5.3,5.3,0,0,0-1.58-3.79h0a5.37,5.37,0,0,0-9.16,3.79Z"/><circle class="cls-6" cx="196.73" cy="37.81" r="4.49"/><path class="cls-6" d="M201.45,37.81a4.72,4.72,0,1,1-1.38-3.34A4.7,4.7,0,0,1,201.45,37.81Zm-9,0a4.21,4.21,0,0,0,1.25,3,4.26,4.26,0,1,0,0-6A4.21,4.21,0,0,0,192.47,37.81Z"/><circle class="cls-6" cx="131.2" cy="329.03" r="4.49"/><path class="cls-6" d="M135.92,329a4.72,4.72,0,1,1-1.38-3.34A4.7,4.7,0,0,1,135.92,329Zm-9,0a4.27,4.27,0,1,0,1.25-3A4.24,4.24,0,0,0,126.94,329Z"/><circle class="cls-6" cx="18.35" cy="216.18" r="4.49"/><path class="cls-6" d="M23.07,216.18a4.72,4.72,0,1,1-1.38-3.33h0A4.7,4.7,0,0,1,23.07,216.18Zm-9,0a4.27,4.27,0,1,0,1.25-3A4.24,4.24,0,0,0,14.09,216.18Z"/><circle class="cls-6" cx="309.58" cy="150.65" r="4.49"/><path class="cls-6" d="M314.3,150.65a4.73,4.73,0,1,1-1.38-3.33h0A4.7,4.7,0,0,1,314.3,150.65Zm-9,0a4.26,4.26,0,1,0,7.27-3h0a4.26,4.26,0,0,0-6,0A4.24,4.24,0,0,0,305.32,150.65Z"/><path class="cls-6" d="M134.6,222.45a17,17,0,1,1-5-12h0A16.9,16.9,0,0,1,134.6,222.45Zm-33.5,0a16.53,16.53,0,1,0,28.21-11.69h0a16.52,16.52,0,0,0-28.21,11.69Z"/><circle class="cls-10" cx="117.68" cy="222.51" r="18.95"/><path class="cls-6" d="M216.59,140.46a17,17,0,1,1-5-12A16.93,16.93,0,0,1,216.59,140.46Zm-33.51,0a16.53,16.53,0,1,0,4.84-11.69A16.42,16.42,0,0,0,183.08,140.46Z"/><circle class="cls-10" cx="199.61" cy="140.46" r="18.87"/><path class="cls-11" d="M211.46,128.61a16.43,16.43,0,0,1,3.06,4.2l-3.1.79a.78.78,0,0,0-.55.94l1.38,5.33a.76.76,0,0,0,.93.55l3.17-.81a16.69,16.69,0,0,1-2.66,9.95l-2.28-2.28a.77.77,0,0,0-1.09,0l-3.89,3.89a.77.77,0,0,0,0,1.09l2.28,2.28a16.77,16.77,0,0,1-10.43,2.63l.9-3.14a.77.77,0,0,0-.52-1l-5.29-1.52a.77.77,0,0,0-1,.53l-.89,3.07a16.66,16.66,0,0,1-3.77-2.84,16.88,16.88,0,0,1-3.22-4.51l3.23-.83a.77.77,0,0,0,.55-.94L187,140.7a.78.78,0,0,0-.94-.55l-3.15.82a16.77,16.77,0,0,1,2.67-9.61l2.29,2.28a.76.76,0,0,0,1.08,0l3.89-3.89a.77.77,0,0,0,0-1.09l-2.28-2.28a16.72,16.72,0,0,1,10.08-2.65l-.89,3.08a.78.78,0,0,0,.53,1l5.29,1.52a.76.76,0,0,0,.94-.52l.91-3.16A16.42,16.42,0,0,1,211.46,128.61Z"/><path class="cls-11" d="M129.47,210.6a16.43,16.43,0,0,1,3.06,4.2l-3.1.79a.78.78,0,0,0-.55.94l1.38,5.33a.76.76,0,0,0,.93.55l3.17-.81a16.69,16.69,0,0,1-2.66,10l-2.28-2.28a.77.77,0,0,0-1.09,0l-3.89,3.89a.77.77,0,0,0,0,1.09l2.28,2.28a16.77,16.77,0,0,1-10.43,2.63l.9-3.14a.77.77,0,0,0-.52-1l-5.29-1.52a.77.77,0,0,0-.95.53l-.89,3.07a16.66,16.66,0,0,1-3.77-2.84,16.88,16.88,0,0,1-3.22-4.51l3.23-.83a.77.77,0,0,0,.55-.94L105,222.69a.77.77,0,0,0-.94-.54l-3.15.81a16.77,16.77,0,0,1,2.67-9.61l2.29,2.28a.76.76,0,0,0,1.08,0l3.89-3.89a.77.77,0,0,0,0-1.09l-2.28-2.28a16.72,16.72,0,0,1,10.08-2.65l-.89,3.08a.78.78,0,0,0,.53.95l5.29,1.52a.76.76,0,0,0,.94-.52l.91-3.16A16.42,16.42,0,0,1,129.47,210.6Z"/><path class="cls-12" d="M193.94,48.92l-165,165a4.63,4.63,0,0,0,0,6.52l73.47,73.46a4.61,4.61,0,0,0,6.52,0l165-165a4.61,4.61,0,0,0,0-6.52L200.46,48.92A4.63,4.63,0,0,0,193.94,48.92Zm38.69,83a4.61,4.61,0,0,1,0,6.52L118.44,252.61a4.63,4.63,0,0,1-6.52,0L87.47,228.15a4.61,4.61,0,0,1,0-6.52L201.66,107.44a4.63,4.63,0,0,1,6.52,0Z"/><g class="cls-13"><path d="M86,199.8a26.69,26.69,0,0,1-4.68-7.58,56.06,56.06,0,0,1-3.53-10c-.75-3.14-.81-5-.17-5.67a.87.87,0,0,1,1-.1,3.67,3.67,0,0,1,1.25.84A11.41,11.41,0,0,1,82,181a24.48,24.48,0,0,1,1.54,5.65,13.62,13.62,0,0,1,0,5.25,20.39,20.39,0,0,0,3.91,6.2q2.27,2.28,3.59,1a3.41,3.41,0,0,0,.87-2,6.11,6.11,0,0,0-.27-2.66,4.29,4.29,0,0,1-2.58,0A5.38,5.38,0,0,1,86.79,193a3.94,3.94,0,0,1-1.25-2.42,2.54,2.54,0,0,1,.72-2.14,1.82,1.82,0,0,1,1.68-.52,3.94,3.94,0,0,1,2,1.22,10.07,10.07,0,0,1,2.42,4.1,3.93,3.93,0,0,0,.7-.55,3.73,3.73,0,0,0,.87-1.33,3.27,3.27,0,0,0,.19-1.56,12.32,12.32,0,0,0-.2-1.4,9.57,9.57,0,0,0-.41-1.39l.6,0q1.6,3.85-.69,6.16a5.3,5.3,0,0,1-.84.69c.72,2.83.34,5-1.15,6.47a3.11,3.11,0,0,1-2.65,1A5,5,0,0,1,86,199.8Zm1.78-7.52a3.93,3.93,0,0,0,3.64,1.34,8,8,0,0,0-1.87-3A4.6,4.6,0,0,0,88,189.57a1,1,0,0,0-1.06.07,1.1,1.1,0,0,0-.13,1.14A3.54,3.54,0,0,0,87.75,192.28Zm-4.89-1.63a17.64,17.64,0,0,0-.91-6.83c-.82-2.71-1.57-4.42-2.28-5.13-.12-.12-.22-.16-.28-.09s-.15.91.08,2.21a36,36,0,0,0,1.27,4.8A29.49,29.49,0,0,0,82.86,190.65Z"/><path d="M94.86,190c-1.47-1.47-2.31-3.66-2.54-6.56s.35-5.05,1.73-6.42A1.84,1.84,0,0,1,97,177a5.37,5.37,0,0,1,1.23,4.95,11.56,11.56,0,0,1-2.5,5.62,6.11,6.11,0,0,0,.77,1q2,2,3.9.13a6.61,6.61,0,0,0,1.72-4.17,13.38,13.38,0,0,0-.6-5.44l.5-.07a12.09,12.09,0,0,1,.75,6.06,8.12,8.12,0,0,1-2.2,4.79,4.18,4.18,0,0,1-3,1.41A3.83,3.83,0,0,1,94.86,190Zm.53-3a16.57,16.57,0,0,0,1.41-5,4.72,4.72,0,0,0-1-4.1.66.66,0,0,0-1,0c-.75.75-1,2.08-.86,4A12.65,12.65,0,0,0,95.39,187Z"/><path d="M102.48,182a3.45,3.45,0,0,1-.87-1.3,2,2,0,0,1-.12-1.09,5.11,5.11,0,0,1,.29-.83,2,2,0,0,0,.17-.56,19.86,19.86,0,0,0-1.12-5.82l-.29-.29a3.13,3.13,0,0,1-1-1.5,1.11,1.11,0,0,1,.25-1.06c.26-.26.49-.28.7-.08l.31.46a4.85,4.85,0,0,0,.6.74,15.16,15.16,0,0,0,3.28,2,15.36,15.36,0,0,1,3.74,2.49,6.4,6.4,0,0,1,1,1.32c1-1.39,1.08-3.3.31-5.73l.46,0a5.6,5.6,0,0,1-.51,6.2,4.17,4.17,0,0,1-1.07,5.05,4,4,0,0,1-3.27,1.4A4.88,4.88,0,0,1,102.48,182Zm1.17-1.17a3.67,3.67,0,0,0,2.15,1.08,2.35,2.35,0,0,0,2.12-.71,2.12,2.12,0,0,0,.33-2.67,6.25,6.25,0,0,1-2.49,1,5.91,5.91,0,0,1-2.42,0C103,179.78,103.11,180.24,103.65,180.78Zm-1-2.2a5.73,5.73,0,0,0,5.3-.6,11.49,11.49,0,0,0-1-1.23,14.42,14.42,0,0,0-1.53-1.29c-.58-.41-1.24-.85-2-1.3s-1.27-.79-1.57-1A24.1,24.1,0,0,1,102.69,178.58Z"/><path d="M111.8,174a25.25,25.25,0,0,1-4.39-7.17,7,7,0,0,1-1,.67l-.43-.43c.64-.51,1-.83,1.15-1a42.58,42.58,0,0,1-2.47-7c-.53-2.14-.56-3.44-.1-3.91a.78.78,0,0,1,.5-.2.67.67,0,0,1,.53.23,4.54,4.54,0,0,1,.78,1.71c.28.9.63,2.13,1.06,3.69s.84,2.91,1.25,4.06l.89-.89a47.73,47.73,0,0,0,3.28-3.56l.43.43a56.53,56.53,0,0,1-3.8,4.38l-.12.12-.36.36a18.72,18.72,0,0,0,3.88,6.52,3.83,3.83,0,0,0,1.82,1.19,1.68,1.68,0,0,0,1.46-.6,5.11,5.11,0,0,0,1.33-3.51,13.83,13.83,0,0,0-.88-5.13l.56-.07a13.27,13.27,0,0,1,1,5.8,6.73,6.73,0,0,1-1.83,4.5Q114.17,176.35,111.8,174Z"/><path d="M124.69,161.09a26.6,26.6,0,0,1-4.69-7.58,56.06,56.06,0,0,1-3.53-10c-.75-3.14-.81-5-.17-5.68a.89.89,0,0,1,1-.09,3.54,3.54,0,0,1,1.25.84,11.58,11.58,0,0,1,2.18,3.69,24.84,24.84,0,0,1,1.53,5.65,13.56,13.56,0,0,1-.05,5.24,15.49,15.49,0,0,0,1.43,2.89,15.77,15.77,0,0,0,2.48,3.32q2.26,2.28,3.59,1a3.43,3.43,0,0,0,.87-2,6.11,6.11,0,0,0-.27-2.66,4.29,4.29,0,0,1-2.58,0,5.41,5.41,0,0,1-2.26-1.36,3.91,3.91,0,0,1-1.25-2.42,2.53,2.53,0,0,1,.72-2.13,1.83,1.83,0,0,1,1.68-.52,3.93,3.93,0,0,1,2,1.22,10.33,10.33,0,0,1,2.42,4.09,3.14,3.14,0,0,0,.69-.55,3.65,3.65,0,0,0,.87-1.33,3.34,3.34,0,0,0,.2-1.55c-.06-.55-.13-1-.21-1.4a10.78,10.78,0,0,0-.4-1.39l.59,0q1.6,3.85-.69,6.16a5.3,5.3,0,0,1-.84.69c.72,2.83.34,5-1.15,6.47a3.11,3.11,0,0,1-2.65,1A5,5,0,0,1,124.69,161.09Zm1.77-7.52a3.93,3.93,0,0,0,3.64,1.34,8,8,0,0,0-1.87-3,4.24,4.24,0,0,0-1.53-1.08,1,1,0,0,0-1.06.07,1.1,1.1,0,0,0-.13,1.14A3.54,3.54,0,0,0,126.46,153.57Zm-4.89-1.63a17.64,17.64,0,0,0-.91-6.83q-1.22-4.06-2.27-5.13c-.13-.12-.23-.16-.29-.09s-.15.91.08,2.21a37.53,37.53,0,0,0,1.27,4.79A30.08,30.08,0,0,0,121.57,151.94Z"/><path d="M134.15,152.44A9.05,9.05,0,0,1,132,148.3a14.59,14.59,0,0,1-.41-5.55,7.05,7.05,0,0,1,1.8-4.31,3.48,3.48,0,0,1,2.09-1.06,2.31,2.31,0,0,1,1.94.69c.68.68.63,1.42-.15,2.2a4.16,4.16,0,0,0-.72-1c-.89-.89-1.74-.94-2.53-.15a4.66,4.66,0,0,0-1,3.45,14.47,14.47,0,0,0,.87,4.73,9.48,9.48,0,0,0,2,3.52c.63.62,1.15.72,1.58.29a2.57,2.57,0,0,0,.6-1.41,10.05,10.05,0,0,0,.14-2c0-.65-.09-1.48-.22-2.48s-.24-1.77-.34-2.28l-.38-2.1c.76-.54,1.28-.66,1.57-.38a9.24,9.24,0,0,1,.73,2.15,6.11,6.11,0,0,0,1.19,2.6,1.89,1.89,0,0,0,.93.52,1,1,0,0,0,1-.31,4.13,4.13,0,0,0,.75-2.74,16.8,16.8,0,0,0-.71-4.87h.48a11.29,11.29,0,0,1,1,5.21,5.73,5.73,0,0,1-1.46,3.88,2.29,2.29,0,0,1-1.75.78,2.39,2.39,0,0,1-1.6-.72,6.24,6.24,0,0,1-.62-.77,16.14,16.14,0,0,1,.14,4,3.91,3.91,0,0,1-1,2.35,2.49,2.49,0,0,1-1.77.79A2.77,2.77,0,0,1,134.15,152.44Z"/><path d="M144.42,140.44a20.1,20.1,0,0,1-3.42-5.29,57.31,57.31,0,0,1-3-7.33,47.93,47.93,0,0,1-1.73-6.71c-.35-2-.33-3.25.07-3.65.22-.22.61-.21,1.16,0a4.55,4.55,0,0,1,1.4,1c1.2,1.2,2.38,3.68,3.52,7.44A26.21,26.21,0,0,1,143.72,136a15.83,15.83,0,0,0,2.11,2.73c1.24,1.24,2.2,1.5,2.91.8a3.37,3.37,0,0,0,.7-2.65,14.93,14.93,0,0,0-.85-4,38.55,38.55,0,0,1-3.69-7.25,47.6,47.6,0,0,1-2.5-8c-.49-2.39-.49-3.83,0-4.3.22-.23.61-.22,1.16,0a4.55,4.55,0,0,1,1.4,1q1.8,1.8,3.34,6.67a23.18,23.18,0,0,1,1.11,9.32,15.84,15.84,0,0,0,2.11,2.74c1.23,1.23,2.2,1.49,2.9.79a3.55,3.55,0,0,0,.69-2.94,17.49,17.49,0,0,0-1.08-4.35l.56-.16q2.32,6.43-.12,8.89-1.92,1.92-4.36-.53a5.72,5.72,0,0,1-.53-.58q1.2,4.8-.79,6.79C147.51,142.24,146.05,142.07,144.42,140.44Zm-1.3-5.47a31.47,31.47,0,0,0-1.55-8.93q-1.53-5-2.85-6.3c-.25-.25-.44-.33-.55-.22s-.15,1.19.22,2.88a49.2,49.2,0,0,0,1.87,6.17A46.47,46.47,0,0,0,143.12,135Zm5.68-5.68a26.65,26.65,0,0,0-1.36-8.14q-1.37-4.22-2.68-5.53c-.26-.26-.44-.33-.55-.21s-.18,1,.13,2.48a40.85,40.85,0,0,0,1.7,5.38A47,47,0,0,0,148.8,129.29Z"/><path d="M155.92,130.66a9.1,9.1,0,0,1-2.15-4.13,14.43,14.43,0,0,1-.42-5.55,7,7,0,0,1,1.81-4.31,3.41,3.41,0,0,1,2.08-1.06,2.28,2.28,0,0,1,1.94.68c.69.69.64,1.42-.14,2.21a4.46,4.46,0,0,0-.72-1c-.9-.9-1.74-1-2.54-.15a4.65,4.65,0,0,0-1,3.44,14.58,14.58,0,0,0,.87,4.74,9.44,9.44,0,0,0,2,3.51c.62.63,1.15.72,1.58.29a2.65,2.65,0,0,0,.6-1.41,10.78,10.78,0,0,0,.14-2c0-.65-.09-1.48-.22-2.49s-.24-1.76-.34-2.27l-.38-2.11c.75-.53,1.28-.66,1.56-.37a8.82,8.82,0,0,1,.74,2.14,6.12,6.12,0,0,0,1.18,2.6,1.84,1.84,0,0,0,.94.52,1,1,0,0,0,1-.3,4.09,4.09,0,0,0,.76-2.74,17.22,17.22,0,0,0-.71-4.88h.48a11.43,11.43,0,0,1,1,5.21,5.71,5.71,0,0,1-1.45,3.88,2.28,2.28,0,0,1-1.75.79,2.34,2.34,0,0,1-1.6-.73,5.55,5.55,0,0,1-.63-.77,16.23,16.23,0,0,1,.15,4,4,4,0,0,1-1,2.35,2.45,2.45,0,0,1-1.78.79A2.79,2.79,0,0,1,155.92,130.66Z"/><path d="M166.18,119.55a9,9,0,0,1-2.09-4,15.36,15.36,0,0,1-.5-5.53,6.67,6.67,0,0,1,1.68-4.25c.7-.7,1.3-.8,1.82-.29a3.47,3.47,0,0,1,.28.39,1.49,1.49,0,0,0-1.27.55,4.79,4.79,0,0,0-1.17,3.59,13.22,13.22,0,0,0,.83,4.51,8.84,8.84,0,0,0,1.78,3.11,2,2,0,0,0,1.07.61,1.05,1.05,0,0,0,.95-.33c.69-.69.92-2.16.7-4.41a24,24,0,0,0-2.1-7.37l-1.49-3.36-1.35-3.17c-.55-1.32-1-2.38-1.21-3.18l-.84-2.51a8.07,8.07,0,0,1-.4-2.15,1.55,1.55,0,0,1,.31-1.11.69.69,0,0,1,.49-.18.81.81,0,0,1,.54.26,11.81,11.81,0,0,1,1.48,3.2l2,5.81a55.5,55.5,0,0,0,2.73,6.51,19.22,19.22,0,0,0,3.28,5c.37.37.64.62.8.75a1.11,1.11,0,0,0,.54.25.65.65,0,0,0,.56-.21,4.38,4.38,0,0,0,.88-2.88,11.15,11.15,0,0,0-.74-4.36l.5-.07a11.11,11.11,0,0,1,1,5.1,5.62,5.62,0,0,1-1.37,3.84,2,2,0,0,1-1.72.67,3,3,0,0,1-1.66-.89,16.24,16.24,0,0,1-2.1-3,21.71,21.71,0,0,1,.69,5.78,5.23,5.23,0,0,1-1.15,3.59,2.46,2.46,0,0,1-1.74.71A2.77,2.77,0,0,1,166.18,119.55Z"/><path d="M176.76,107.67a3.48,3.48,0,0,1-.87-1.31,1.86,1.86,0,0,1-.11-1.08,6.89,6.89,0,0,1,.28-.84,1.68,1.68,0,0,0,.17-.55,19.6,19.6,0,0,0-1.12-5.83l-.29-.29a3.12,3.12,0,0,1-.94-1.49,1.11,1.11,0,0,1,.25-1.07c.25-.26.49-.28.69-.07a3,3,0,0,1,.31.45,4.93,4.93,0,0,0,.6.75,15.4,15.4,0,0,0,3.29,2,15.47,15.47,0,0,1,3.73,2.49,6.33,6.33,0,0,1,1,1.32q1.47-2.09.31-5.72l.46,0a5.62,5.62,0,0,1-.5,6.21,4.17,4.17,0,0,1-1.07,5,3.92,3.92,0,0,1-3.27,1.4A4.86,4.86,0,0,1,176.76,107.67Zm1.18-1.18a3.68,3.68,0,0,0,2.15,1.09,2.39,2.39,0,0,0,2.12-.71,2.15,2.15,0,0,0,.33-2.68,6.27,6.27,0,0,1-2.49,1,6,6,0,0,1-2.43-.05C177.29,105.5,177.39,106,177.94,106.49Zm-1-2.19a5.73,5.73,0,0,0,5.3-.61,9.52,9.52,0,0,0-1-1.22,11.06,11.06,0,0,0-1.53-1.29c-.57-.42-1.23-.85-2-1.31l-1.57-1A22.86,22.86,0,0,1,177,104.3Z"/></g><rect class="cls-6" x="49.78" y="131.55" width="172.61" height="0.46" transform="translate(-53.33 134.82) rotate(-45)"/><rect class="cls-6" x="58.67" y="138.89" width="172.37" height="0.46" transform="translate(-55.94 143.18) rotate(-45)"/><g class="cls-7"><path class="cls-9" d="M196.11,82c-6.18,1.78-10.84,1.66-11.73-.21-.14-.3-.74-1.79,2.29-5.21.63-3.26,1.5-5,2.6-5.14Q191.85,71.07,196.11,82Z"/><path class="cls-6" d="M196.41,82.17l-.24.07c-6.32,1.82-11,1.69-12-.33-.26-.55-.56-2.18,2.29-5.42.66-3.36,1.57-5.08,2.78-5.26,1.85-.27,4.16,3.23,7.08,10.71ZM184.47,81.1a1.25,1.25,0,0,0,.12.61c.82,1.73,5.42,1.79,11.21.16-3.41-8.7-5.41-10.35-6.5-10.19-.67.1-1.65,1-2.41,5v.06l0,0C184.86,79,184.47,80.36,184.47,81.1Z"/></g><g class="cls-7"><path class="cls-9" d="M202.72,83c-3.17-1.5-5-3.23-4.72-4.32.05-.17.34-1,2.82-1.3,1.44-1.11,2.41-1.5,2.92-1.17Q204.93,77,202.72,83Z"/><path class="cls-6" d="M204.38,77.36a18.59,18.59,0,0,1-1.45,5.7l-.08.24-.23-.11c-3.29-1.56-5.19-3.37-4.84-4.59.12-.42.66-1.17,2.95-1.46,1.53-1.17,2.53-1.53,3.13-1.14C204.13,76.17,204.38,76.51,204.38,77.36Zm-1.79,5.31c1.77-4.89,1.41-6,1-6.29s-.9-.2-2.66,1.16l-.05,0h-.07c-2.27.28-2.58,1-2.62,1.15C198,79.49,199.28,81.06,202.59,82.67Z"/></g><polygon class="cls-2" points="212.02 143.81 210.39 145.41 205.89 149.84 203.76 151.94 203.41 152.28 191.23 148.93 188.19 137.24 188.93 136.5 191.06 134.39 195.54 129.94 197.23 128.27 198.42 128.61 208.97 131.65 211.67 142.41 212.02 143.81"/><polygon class="cls-2" points="208.97 131.65 95.01 10.25 77.27 27.53 191.23 148.93 208.97 131.65"/><path class="cls-14" d="M101.7,17.37,87.29,2.16C85.06-.2,81.84-.71,80.24,1.05l-8.63,9.49C68.45,14,69.55,20.43,74.07,25L84,34.9c1,1,2.48,1.27,3.24.52l14.93-14.74C102.91,19.92,102.71,18.44,101.7,17.37Z"/><path class="cls-15" d="M205.89,149.84l-2.13,2.1L188.93,136.5,93.16,36.75a1.5,1.5,0,0,1,2.16-2.08l95.74,99.72Z"/><path class="cls-15" d="M212,143.81l-1.63,1.6-14.85-15.47L99.74,30.17a1.5,1.5,0,0,1,2.17-2.08l96.51,100.52,13.25,13.8Z"/><path class="cls-16" d="M120.38,36.94,102,54.19l-1.19,0L83.6,35.82l0-1.19L102,17.38l1.2,0,17.24,18.34Z"/></g></g></svg>